<svg viewBox="0 0 729.3098 114.078740157" width="729.3098pt" height="114.078740157pt" xmlns="http://www.w3.org/2000/svg" xmlns:xlink="http://www.w3.org/1999/xlink" xmlns:h5="http://www.w3.org/1999/xhtml"><path fill="#ffffff" fill-rule="nonzero" d="M 0 0v 114.078740157h 729.3098v -114.078740157Z "/><g transform="translate(8 8)"><path fill="#222222" fill-rule="nonzero" d="M 0 0v 17.57480315h 713.3098v -17.57480315h -713.3098Z "/><path fill="#300a24" fill-rule="nonzero" transform="translate(0 17.57480315)" d="M 0 0v 80.503937008h 713.3098v -80.503937008h -713.3098Z "/><path fill="none" transform="translate(243.7729 3.826401575)" d="M 0 0h 225.764v 9.922h -225.764v -9.922Z "/><g transform="translate(243.77289989 3.826401449)"><g transform="matrix(1 0 0 -1 0 7.579)"><use xlink:href="#g277FA951B2183F559689C42C9A66EC3B" x="0" y="0" fill="#ffffff" fill-rule="nonzero"/><use xlink:href="#gA8424261CF3745BD1D84F7756F421D17" x="5.401" y="0" fill="#ffffff" fill-rule="nonzero"/><use xlink:href="#gDFD63563B41007A11BD67C9059C228DE" x="12.342" y="0" fill="#ffffff" fill-rule="nonzero"/><use xlink:href="#g264C7A3B799FCD38866F48E8E0D7C6E" x="18.392" y="0" fill="#ffffff" fill-rule="nonzero"/><use xlink:href="#gDB5562003FDFA4265F856287DD4AD20E" x="24.838" y="0" fill="#ffffff" fill-rule="nonzero"/><use xlink:href="#gDFD63563B41007A11BD67C9059C228DE" x="27.94" y="0" fill="#ffffff" fill-rule="nonzero"/><use xlink:href="#g7BC16E7DEF74318F213385DF6EABB849" x="33.99" y="0" fill="#ffffff" fill-rule="nonzero"/><use xlink:href="#gCED5173E4AECF9CBA2D93C69F309716C" x="37.961" y="0" fill="#ffffff" fill-rule="nonzero"/><use xlink:href="#g234C88B46068ECC7D339409CA1F354F5" x="49.181" y="0" fill="#ffffff" fill-rule="nonzero"/><use xlink:href="#g34E986B3A1928C6094D933B8BAA562F7" x="54.659" y="0" fill="#ffffff" fill-rule="nonzero"/><use xlink:href="#g97F133250D1616F684A132C3FBFE91F9" x="62.172" y="0" fill="#ffffff" fill-rule="nonzero"/><use xlink:href="#g739C231C8693593E0DE116715AA944EE" x="68.288" y="0" fill="#ffffff" fill-rule="nonzero"/><use xlink:href="#g1BB71BF5E06317C77CCE0F09DDAAD5BE" x="73.733" y="0" fill="#ffffff" fill-rule="nonzero"/><use xlink:href="#g97A66703FB64B4F642F929B686464CF0" x="79.585" y="0" fill="#ffffff" fill-rule="nonzero"/><use xlink:href="#g3D6C7CE7B01BB1924630584F5F9C8ABC" x="84.348" y="0" fill="#ffffff" fill-rule="nonzero"/><use xlink:href="#gAF69931B3AAD6A9C65A1F41D84AA499F" x="90.486" y="0" fill="#ffffff" fill-rule="nonzero"/><use xlink:href="#g3D6C7CE7B01BB1924630584F5F9C8ABC" x="96.877" y="0" fill="#ffffff" fill-rule="nonzero"/><use xlink:href="#gE3192B596B83EB503C1A2641539AB722" x="103.015" y="0" fill="#ffffff" fill-rule="nonzero"/><use xlink:href="#gE3192B596B83EB503C1A2641539AB722" x="108.878" y="0" fill="#ffffff" fill-rule="nonzero"/><use xlink:href="#g4BDD1585FB452EA506ED181C5E36AB1D" x="114.741" y="0" fill="#ffffff" fill-rule="nonzero"/><use xlink:href="#g29E508FE03F34C4AD55CCC999B1B04E4" x="120.296" y="0" fill="#ffffff" fill-rule="nonzero"/><use xlink:href="#g2578C6BEE68A4C49F9C6242960114DAC" x="125.664" y="0" fill="#ffffff" fill-rule="nonzero"/><use xlink:href="#gFE79C7D17A3E31CE5ABE9095AD60F8A6" x="131.384" y="0" fill="#ffffff" fill-rule="nonzero"/><use xlink:href="#gB04AAC318B0B3BC2E4C6BFEE79C0E653" x="137.379" y="0" fill="#ffffff" fill-rule="nonzero"/><use xlink:href="#g9C84024032C73DE15655455A834403CD" x="140.624" y="0" fill="#ffffff" fill-rule="nonzero"/><use xlink:href="#g97F133250D1616F684A132C3FBFE91F9" x="149.27" y="0" fill="#ffffff" fill-rule="nonzero"/><use xlink:href="#g2578C6BEE68A4C49F9C6242960114DAC" x="154.506" y="0" fill="#ffffff" fill-rule="nonzero"/><use xlink:href="#gDB5562003FDFA4265F856287DD4AD20E" x="160.226" y="0" fill="#ffffff" fill-rule="nonzero"/><use xlink:href="#g7BC16E7DEF74318F213385DF6EABB849" x="163.328" y="0" fill="#ffffff" fill-rule="nonzero"/><use xlink:href="#gC3BEE47D7E3B6F5CD5CCFCCF5CBECC87" x="167.189" y="0" fill="#ffffff" fill-rule="nonzero"/><use xlink:href="#g1C08F9C41E7823ECBB6803040D421A8E" x="173.503" y="0" fill="#ffffff" fill-rule="nonzero"/><use xlink:href="#g264C7A3B799FCD38866F48E8E0D7C6E" x="181.39" y="0" fill="#ffffff" fill-rule="nonzero"/><use xlink:href="#gE6E89815CE12D8BDBEEB6BDB745F5D9F" x="187.836" y="0" fill="#ffffff" fill-rule="nonzero"/><use xlink:href="#gEC13A8031F914418A67557E78BBC655F" x="192.973" y="0" fill="#ffffff" fill-rule="nonzero"/><use xlink:href="#g739C231C8693593E0DE116715AA944EE" x="197.186" y="0" fill="#ffffff" fill-rule="nonzero"/><use xlink:href="#gAECBAB47E199564F2DED0EC3B8AD0AF7" x="202.631" y="0" fill="#ffffff" fill-rule="nonzero"/><use xlink:href="#g1BB71BF5E06317C77CCE0F09DDAAD5BE" x="205.271" y="0" fill="#ffffff" fill-rule="nonzero"/><use xlink:href="#gE3192B596B83EB503C1A2641539AB722" x="211.123" y="0" fill="#ffffff" fill-rule="nonzero"/><use xlink:href="#gAECBAB47E199564F2DED0EC3B8AD0AF7" x="216.986" y="0" fill="#ffffff" fill-rule="nonzero"/><use xlink:href="#g3D6C7CE7B01BB1924630584F5F9C8ABC" x="219.626" y="0" fill="#ffffff" fill-rule="nonzero"/></g></g><path fill="none" transform="translate(667.417862992 4.541401575)" d="M 0 0h 37.388v 8.492h -37.388v -8.492Z "/><g transform="translate(667.417862929 4.541401559)"><g transform="matrix(1 0 0 -1 0 7.579)"><use xlink:href="#gC56907FAF84E4D2FECA40A3CBF3D5F8" x="0" y="0" fill="#bbbbbb" fill-rule="nonzero"/></g><g transform="matrix(1 0 0 -1 14.415 7.579)"><use xlink:href="#g7FFAFC05846FF81C12B683BFEAE77CAD" x="0" y="0" fill="#bbbbbb" fill-rule="nonzero"/></g><g transform="matrix(1 0 0 -1 22.973 7.579)"/><g transform="matrix(1 0 0 -1 31.888 7.579)"><use xlink:href="#g463259C9BC5161EE9D594BFC2C9E49F5" x="0" y="0" fill="#bbbbbb" fill-rule="nonzero"/></g></g><path fill="none" transform="translate(7.1638 19.633985144)" d="M 0 0h 71.644042969v 15.157226563h -71.644042969v -15.157226563Z "/><g transform="translate(7.163799957 19.633985008)"><g transform="matrix(1 0 0 -1 0 12.916015625)"><use xlink:href="#g3CFDDD1B643941499479B4C70AB4D630" x="0" y="0" fill="#ffffff" fill-rule="nonzero"/><use xlink:href="#gDD41AEACCF9F693E2F2C80F3A57E4C27" x="10.234863281" y="0" fill="#ffffff" fill-rule="nonzero"/><use xlink:href="#g97F362F3C5E072A6E72577BADF5DF516" x="20.469726563" y="0" fill="#ffffff" fill-rule="nonzero"/><use xlink:href="#gEBD5690478F669BABE666D2D9FFB163D" x="30.704589844" y="0" fill="#ffffff" fill-rule="nonzero"/><use xlink:href="#g1C1D22176C6EE81E930502DE93833E64" x="40.939453125" y="0" fill="#ffffff" fill-rule="nonzero"/><use xlink:href="#gA3500A8653C93D5112C64A3C1072FF03" x="51.174316406" y="0" fill="#ffffff" fill-rule="nonzero"/></g></g><path fill="none" transform="translate(78.8018 19.430616003)" d="M 0 0h 194.462402344v 15.563964844h -194.462402344v -15.563964844Z "/><g transform="translate(78.801799944 19.430615906)"><g transform="matrix(1 0 0 -1 0 12.916015625)"><use xlink:href="#g262DFB9DB872D3B6DA4D2095909EF5C6" x="0" y="0" fill="#26a269" fill-rule="nonzero"/><use xlink:href="#g5411590982923BD0DE3A9A0751267DE4" x="10.234863281" y="0" fill="#26a269" fill-rule="nonzero"/><use xlink:href="#g469D0CE696C48CDB73C0DA872E4DDADF" x="20.469726563" y="0" fill="#26a269" fill-rule="nonzero"/><use xlink:href="#g62A58D32B9DFCE5D293A75DC0D978960" x="30.704589844" y="0" fill="#26a269" fill-rule="nonzero"/><use xlink:href="#gA12AE4B0F7592E66C503B7C6491514F6" x="40.939453125" y="0" fill="#26a269" fill-rule="nonzero"/><use xlink:href="#g469D0CE696C48CDB73C0DA872E4DDADF" x="51.174316406" y="0" fill="#26a269" fill-rule="nonzero"/><use xlink:href="#g799DD4A1BCE3DFE3D6BAADA09C50B77C" x="61.409179688" y="0" fill="#26a269" fill-rule="nonzero"/><use xlink:href="#g7CAC5FD09B90E00C151870105836E055" x="71.644042969" y="0" fill="#26a269" fill-rule="nonzero"/><use xlink:href="#g7DF37EFBE6250D6C05C112FABA91491E" x="81.87890625" y="0" fill="#26a269" fill-rule="nonzero"/><use xlink:href="#g945D807068C4E0BF4066970D75CCD838" x="92.113769531" y="0" fill="#26a269" fill-rule="nonzero"/><use xlink:href="#g810256C6540BA22797C23B04963FDED7" x="102.348632813" y="0" fill="#26a269" fill-rule="nonzero"/><use xlink:href="#gCBC3E29813FCCFEE6C1A2A5F6E3BC247" x="112.583496094" y="0" fill="#26a269" fill-rule="nonzero"/><use xlink:href="#gDCED3D64F3726A03F96E4D5A49E17F25" x="122.818359375" y="0" fill="#26a269" fill-rule="nonzero"/><use xlink:href="#gF0F678BF0EC2C4B36B7275CF57BEAEDA" x="133.053222656" y="0" fill="#26a269" fill-rule="nonzero"/><use xlink:href="#gE255C1CF6E52D8AA24692862E31287E7" x="143.288085938" y="0" fill="#26a269" fill-rule="nonzero"/><use xlink:href="#g27F8E7FCC67AF7B4BBE3A40548C1DFF9" x="153.522949219" y="0" fill="#26a269" fill-rule="nonzero"/><use xlink:href="#gE255C1CF6E52D8AA24692862E31287E7" x="163.7578125" y="0" fill="#26a269" fill-rule="nonzero"/><use xlink:href="#gEEA35DAF177FE2F256CD9E27C60E43CF" x="173.992675781" y="0" fill="#26a269" fill-rule="nonzero"/><use xlink:href="#gEEA35DAF177FE2F256CD9E27C60E43CF" x="184.227539063" y="0" fill="#26a269" fill-rule="nonzero"/></g></g><path fill="none" transform="translate(273.2478 20.754590613)" d="M 0 0h 10.234863281v 12.916015625h -10.234863281v -12.916015625Z "/><g transform="translate(273.247799893 20.754590598)"><g transform="matrix(1 0 0 -1 0 12.916015625)"><use xlink:href="#gB21CD981B49830146061342BD6165D74" x="0" y="0" fill="#ffffff" fill-rule="nonzero"/></g></g><path fill="none" transform="translate(283.4818 19.966016394)" d="M 0 0h 204.697265625v 14.493164062h -204.697265625v -14.493164062Z "/><g transform="translate(283.481799978 19.966016268)"><g transform="matrix(1 0 0 -1 0 12.916015625)"><use xlink:href="#g5E7AF24ED4F26B373074CE9850EAF02B" x="0" y="0" fill="#5674ba" fill-rule="nonzero"/><use xlink:href="#g8AB2D0DD7CA882FB8E32DAACD621E014" x="10.234863281" y="0" fill="#5674ba" fill-rule="nonzero"/><use xlink:href="#gE33E94B2D9DE830A6D3815EB959F0CA2" x="20.469726563" y="0" fill="#5674ba" fill-rule="nonzero"/><use xlink:href="#gBC500579698ABD83BC473BD15D5440AB" x="30.704589844" y="0" fill="#5674ba" fill-rule="nonzero"/><use xlink:href="#g87D82DA202BEE33D8E73C110AFAB8F65" x="40.939453125" y="0" fill="#5674ba" fill-rule="nonzero"/><use xlink:href="#g810256C6540BA22797C23B04963FDED7" x="51.174316406" y="0" fill="#5674ba" fill-rule="nonzero"/><use xlink:href="#g8AB2D0DD7CA882FB8E32DAACD621E014" x="61.409179688" y="0" fill="#5674ba" fill-rule="nonzero"/><use xlink:href="#gA12AE4B0F7592E66C503B7C6491514F6" x="71.644042969" y="0" fill="#5674ba" fill-rule="nonzero"/><use xlink:href="#g799DD4A1BCE3DFE3D6BAADA09C50B77C" x="81.87890625" y="0" fill="#5674ba" fill-rule="nonzero"/><use xlink:href="#g3D52463DA79A3DF3237403235F7ACD57" x="92.113769531" y="0" fill="#5674ba" fill-rule="nonzero"/><use xlink:href="#gA0E887F2D1B5A35DF0D0C6861E8AAA1" x="102.348632813" y="0" fill="#5674ba" fill-rule="nonzero"/><use xlink:href="#g62A58D32B9DFCE5D293A75DC0D978960" x="112.583496094" y="0" fill="#5674ba" fill-rule="nonzero"/><use xlink:href="#gAC118E33209F9115DE3D4D2F45EEFAB5" x="122.818359375" y="0" fill="#5674ba" fill-rule="nonzero"/><use xlink:href="#g50D1EB3C57E5AA622D3DAFF4E83417F8" x="133.053222656" y="0" fill="#5674ba" fill-rule="nonzero"/><use xlink:href="#gCBC3E29813FCCFEE6C1A2A5F6E3BC247" x="143.288085938" y="0" fill="#5674ba" fill-rule="nonzero"/><use xlink:href="#g75779F6A002B347A5C8C6B19432E8EB6" x="153.522949219" y="0" fill="#5674ba" fill-rule="nonzero"/><use xlink:href="#gDCED3D64F3726A03F96E4D5A49E17F25" x="163.7578125" y="0" fill="#5674ba" fill-rule="nonzero"/><use xlink:href="#gEEA35DAF177FE2F256CD9E27C60E43CF" x="173.992675781" y="0" fill="#5674ba" fill-rule="nonzero"/><use xlink:href="#g75779F6A002B347A5C8C6B19432E8EB6" x="184.227539063" y="0" fill="#5674ba" fill-rule="nonzero"/><use xlink:href="#gE255C1CF6E52D8AA24692862E31287E7" x="194.462402344" y="0" fill="#5674ba" fill-rule="nonzero"/></g></g><path fill="none" transform="translate(488.1618 19.505323035)" d="M 0 0h 10.234863281v 15.414550781h -10.234863281v -15.414550781Z "/><g transform="translate(488.161799893 19.505322992)"><g transform="matrix(1 0 0 -1 0 12.916015625)"><use xlink:href="#g66EB6D779E33A4AE3FC58B34B0D63DE9" x="0" y="0" fill="#ffffff" fill-rule="nonzero"/></g></g><path fill="#ffffff" fill-rule="nonzero" transform="translate(499.9309 19.275590551)" d="M 0 0v 14.173228346h 8.1872v -14.173228346h -8.1872Z "/><path fill="none" stroke="#ffffff" stroke-width="1.1" stroke-linecap="butt" stroke-linejoin="miter" stroke-miterlimit="4" transform="translate(78.8018 36.850393701)" d="M 0 0l 0.085284582 0.756921602l 0.251577221 0.718966392l 0.405254728 0.644959206l 0.538611071 0.538611071l 0.644959206 0.405254728l 0.718966392 0.251577221l 0.756921602 0.085284582h 90.419850394l 0.756921602 0.085284582l 0.718966392 0.251577221l 0.644959206 0.405254728l 0.538611071 0.538611071l 0.405254728 0.644959206l 0.251577221 0.718966392l 0.085284582 0.756921602l 0.085284582 -0.756921602l 0.251577221 -0.718966392l 0.405254728 -0.644959206l 0.538611071 -0.538611071l 0.644959206 -0.405254728l 0.718966392 -0.251577221l 0.756921602 -0.085284582h 90.419850394l 0.756921602 -0.085284582l 0.718966392 -0.251577221l 0.644959206 -0.405254728l 0.538611071 -0.538611071l 0.405254728 -0.644959206l 0.251577221 -0.718966392l 0.085284582 -0.756921602"/><path fill="none" transform="translate(127.835823622 47.622047244)" d="M 0 0h 96.377952756v 8.412h -96.377952756v -8.412Z "/><g transform="translate(127.835823622 47.622047197)"><g><g transform="matrix(1 0 0 -1 19.628976378 8.268)"><use xlink:href="#g2C999873CC542BF0A1AAF4E239C5C59E" x="0" y="0" fill="#ffffff" fill-rule="nonzero"/><use xlink:href="#g2B4F08684EDC745046A4747B95D20F66" x="7.944" y="0" fill="#ffffff" fill-rule="nonzero"/><use xlink:href="#g5F16FC47296EA1F560CE5822D0D26835" x="12.276" y="0" fill="#ffffff" fill-rule="nonzero"/><use xlink:href="#g14E8E782F147F5A77416F7EA687D500B" x="15.66" y="0" fill="#ffffff" fill-rule="nonzero"/><use xlink:href="#g5F16FC47296EA1F560CE5822D0D26835" x="19.176" y="0" fill="#ffffff" fill-rule="nonzero"/><use xlink:href="#g32ED68715C9347C44E83F82ADB4E9744" x="22.56" y="0" fill="#ffffff" fill-rule="nonzero"/><use xlink:href="#gB716F6067CD8CAE465B14665D581569E" x="28.164" y="0" fill="#ffffff" fill-rule="nonzero"/><use xlink:href="#g2B4F08684EDC745046A4747B95D20F66" x="34.692" y="0" fill="#ffffff" fill-rule="nonzero"/><use xlink:href="#g67918CAC88C1B8E76DB927EAAD82197F" x="38.904" y="0" fill="#ffffff" fill-rule="nonzero"/><use xlink:href="#gD7A554F2AB2E300F5518601A73D7F043" x="45.504" y="0" fill="#ffffff" fill-rule="nonzero"/><use xlink:href="#gE0DF7B6C9AF1EF8D2030DA1F5FB9DF0F" x="52.488" y="0" fill="#ffffff" fill-rule="nonzero"/></g></g></g><path fill="none" stroke="#ffffff" stroke-width="1.1" stroke-linecap="butt" stroke-linejoin="miter" stroke-miterlimit="4" transform="translate(283.4818 36.850393701)" d="M 0 0l 0.085284582 0.756921602l 0.251577221 0.718966392l 0.405254728 0.644959206l 0.538611071 0.538611071l 0.644959206 0.405254728l 0.718966392 0.251577221l 0.756921602 0.085284582h 95.536850394l 0.756921602 0.085284582l 0.718966392 0.251577221l 0.644959206 0.405254728l 0.538611071 0.538611071l 0.405254728 0.644959206l 0.251577221 0.718966392l 0.085284582 0.756921602l 0.085284582 -0.756921602l 0.251577221 -0.718966392l 0.405254728 -0.644959206l 0.538611071 -0.538611071l 0.644959206 -0.405254728l 0.718966392 -0.251577221l 0.756921602 -0.085284582h 95.536850394l 0.756921602 -0.085284582l 0.718966392 -0.251577221l 0.644959206 -0.405254728l 0.538611071 -0.538611071l 0.405254728 -0.644959206l 0.251577221 -0.718966392l 0.085284582 -0.756921602"/><path fill="none" transform="translate(337.632823622 47.622047244)" d="M 0 0h 96.377952756v 8.412h -96.377952756v -8.412Z "/><g transform="translate(337.632823622 47.622047197)"><g><g transform="matrix(1 0 0 -1 5.372976378 8.268)"><use xlink:href="#g8FD05081B3CABB6E5249CF2FAAFDC373" x="0" y="0" fill="#ffffff" fill-rule="nonzero"/><use xlink:href="#gC4987FEECF13C11223876F75A28C5D42" x="7.728" y="0" fill="#ffffff" fill-rule="nonzero"/><use xlink:href="#g32ED68715C9347C44E83F82ADB4E9744" x="14.736" y="0" fill="#ffffff" fill-rule="nonzero"/><use xlink:href="#g32ED68715C9347C44E83F82ADB4E9744" x="20.34" y="0" fill="#ffffff" fill-rule="nonzero"/><use xlink:href="#g5F16FC47296EA1F560CE5822D0D26835" x="25.944" y="0" fill="#ffffff" fill-rule="nonzero"/><use xlink:href="#g67918CAC88C1B8E76DB927EAAD82197F" x="29.328" y="0" fill="#ffffff" fill-rule="nonzero"/><use xlink:href="#gE0DF7B6C9AF1EF8D2030DA1F5FB9DF0F" x="35.928" y="0" fill="#ffffff" fill-rule="nonzero"/><use xlink:href="#gA355E8916D62A1368E36578CCDF80849" x="43.74" y="0" fill="#ffffff" fill-rule="nonzero"/><use xlink:href="#gC4987FEECF13C11223876F75A28C5D42" x="49.356" y="0" fill="#ffffff" fill-rule="nonzero"/><use xlink:href="#gD7A554F2AB2E300F5518601A73D7F043" x="56.364" y="0" fill="#ffffff" fill-rule="nonzero"/><use xlink:href="#gE0DF7B6C9AF1EF8D2030DA1F5FB9DF0F" x="63.348" y="0" fill="#ffffff" fill-rule="nonzero"/><use xlink:href="#gB716F6067CD8CAE465B14665D581569E" x="67.74" y="0" fill="#ffffff" fill-rule="nonzero"/><use xlink:href="#gF46503E6259416FE4973ACBFF020BD8B" x="74.268" y="0" fill="#ffffff" fill-rule="nonzero"/><use xlink:href="#g2B4F08684EDC745046A4747B95D20F66" x="81.3" y="0" fill="#ffffff" fill-rule="nonzero"/></g></g></g><path fill="none" stroke="#ffffff" stroke-width="1.1" stroke-linecap="butt" stroke-linejoin="miter" stroke-miterlimit="4" transform="translate(498.9075 36.850393701)" d="M 0 0l 0.064146937 0.56931981l 0.189224215 0.540771737l 0.304813001 0.485107112l 0.40511719 0.40511719l 0.485107112 0.304813001l 0.540771737 0.189224215l 0.56931981 0.064146937l 0.56931981 0.064146937l 0.540771737 0.189224215l 0.485107112 0.304813001l 0.40511719 0.40511719l 0.304813001 0.485107112l 0.189224215 0.540771737l 0.064146937 0.56931981l 0.064146937 -0.56931981l 0.189224215 -0.540771737l 0.304813001 -0.485107112l 0.40511719 -0.40511719l 0.485107112 -0.304813001l 0.540771737 -0.189224215l 0.56931981 -0.064146937h 0l 0.56931981 -0.064146937l 0.540771737 -0.189224215l 0.485107112 -0.304813001l 0.40511719 -0.40511719l 0.304813001 -0.485107112l 0.189224215 -0.540771737l 0.064146937 -0.56931981"/><path fill="none" transform="translate(455.835523622 46.488188976)" d="M 0 0h 96.377952756v 24.636h -96.377952756v -24.636Z "/><g transform="translate(455.835523622 46.488188882)"><g><g transform="matrix(1 0 0 -1 6.974976378 8.268)"><use xlink:href="#gEC132CDE5654ED4E1AA021C93F878C25" x="0" y="0" fill="#ffffff" fill-rule="nonzero"/><use xlink:href="#gC4987FEECF13C11223876F75A28C5D42" x="6.144" y="0" fill="#ffffff" fill-rule="nonzero"/><use xlink:href="#gF46503E6259416FE4973ACBFF020BD8B" x="13.152" y="0" fill="#ffffff" fill-rule="nonzero"/><use xlink:href="#g67918CAC88C1B8E76DB927EAAD82197F" x="20.184" y="0" fill="#ffffff" fill-rule="nonzero"/><use xlink:href="#gDC84C26D9E7528E799FFEF8C5372A0D3" x="29.964" y="0" fill="#ffffff" fill-rule="nonzero"/><use xlink:href="#gF968224974618950FD6DA419529C7430" x="37.14" y="0" fill="#ffffff" fill-rule="nonzero"/><use xlink:href="#g67C46C6A9300F1CE09935C1628171314" x="39.648" y="0" fill="#ffffff" fill-rule="nonzero"/><use xlink:href="#gA355E8916D62A1368E36578CCDF80849" x="46.248" y="0" fill="#ffffff" fill-rule="nonzero"/><use xlink:href="#gE0DF7B6C9AF1EF8D2030DA1F5FB9DF0F" x="51.984" y="0" fill="#ffffff" fill-rule="nonzero"/><use xlink:href="#g5F16FC47296EA1F560CE5822D0D26835" x="56.616" y="0" fill="#ffffff" fill-rule="nonzero"/><use xlink:href="#g2B4F08684EDC745046A4747B95D20F66" x="60" y="0" fill="#ffffff" fill-rule="nonzero"/><use xlink:href="#gD7A554F2AB2E300F5518601A73D7F043" x="64.332" y="0" fill="#ffffff" fill-rule="nonzero"/><use xlink:href="#gE0DF7B6C9AF1EF8D2030DA1F5FB9DF0F" x="71.316" y="0" fill="#ffffff" fill-rule="nonzero"/><use xlink:href="#g67918CAC88C1B8E76DB927EAAD82197F" x="75.828" y="0" fill="#ffffff" fill-rule="nonzero"/></g><g transform="matrix(1 0 0 -1 2.570976378 21.936)"><use xlink:href="#gD183623B31FA196EA3A2C4DE249E79A" x="0" y="0" fill="#ffffff" fill-rule="nonzero"/><use xlink:href="#gC4987FEECF13C11223876F75A28C5D42" x="7.128" y="0" fill="#ffffff" fill-rule="nonzero"/><use xlink:href="#gD7A554F2AB2E300F5518601A73D7F043" x="14.136" y="0" fill="#ffffff" fill-rule="nonzero"/><use xlink:href="#gE0DF7B6C9AF1EF8D2030DA1F5FB9DF0F" x="21.12" y="0" fill="#ffffff" fill-rule="nonzero"/><use xlink:href="#g14E8E782F147F5A77416F7EA687D500B" x="28.932" y="0" fill="#ffffff" fill-rule="nonzero"/><use xlink:href="#gF968224974618950FD6DA419529C7430" x="32.448" y="0" fill="#ffffff" fill-rule="nonzero"/><use xlink:href="#gD7A554F2AB2E300F5518601A73D7F043" x="35.076" y="0" fill="#ffffff" fill-rule="nonzero"/><use xlink:href="#g2B4F08684EDC745046A4747B95D20F66" x="42.06" y="0" fill="#ffffff" fill-rule="nonzero"/><use xlink:href="#g5F16FC47296EA1F560CE5822D0D26835" x="46.392" y="0" fill="#ffffff" fill-rule="nonzero"/><use xlink:href="#g14E8E782F147F5A77416F7EA687D500B" x="49.776" y="0" fill="#ffffff" fill-rule="nonzero"/><use xlink:href="#g5F16FC47296EA1F560CE5822D0D26835" x="53.292" y="0" fill="#ffffff" fill-rule="nonzero"/><use xlink:href="#g32ED68715C9347C44E83F82ADB4E9744" x="56.676" y="0" fill="#ffffff" fill-rule="nonzero"/><use xlink:href="#gB716F6067CD8CAE465B14665D581569E" x="62.28" y="0" fill="#ffffff" fill-rule="nonzero"/><use xlink:href="#g2B4F08684EDC745046A4747B95D20F66" x="68.808" y="0" fill="#ffffff" fill-rule="nonzero"/><use xlink:href="#g67918CAC88C1B8E76DB927EAAD82197F" x="73.02" y="0" fill="#ffffff" fill-rule="nonzero"/><use xlink:href="#gD7A554F2AB2E300F5518601A73D7F043" x="79.62" y="0" fill="#ffffff" fill-rule="nonzero"/><use xlink:href="#gE0DF7B6C9AF1EF8D2030DA1F5FB9DF0F" x="86.604" y="0" fill="#ffffff" fill-rule="nonzero"/></g></g></g></g><defs><symbol id="g277FA951B2183F559689C42C9A66EC3B" overflow="visible"><path d="M 0 0m 5.005 6.743h -2.86v -2.585h 2.475v -0.825h -2.475v -3.333h -1.045v 7.579h 4.026l -0.121 -0.836Z "/></symbol><symbol id="gA8424261CF3745BD1D84F7756F421D17" overflow="visible"><path d="M 0 0m 5.1315 7.5075q 0.5225 -0.2035 1.0395 -0.6325l -0.616 -0.638q -0.407 0.33 -0.781 0.473q -0.374 0.143 -0.88 0.143q -0.583 0 -1.0725 -0.3135q -0.4895 -0.3135 -0.7975 -1.001q -0.308 -0.6875 -0.308 -1.7435q 0 -1.595 0.5225 -2.332q 0.5225 -0.737 1.5455 -0.737q 0.847 0 1.441 0.352v 2.277h -1.342l -0.121 0.847h 2.497v -3.663q -0.55 -0.33 -1.1715 -0.5005q -0.6215 -0.1705 -1.3805 -0.1705q -1.441 0 -2.2715 1.001q -0.8305 1.001 -0.8305 2.926q 0 1.232 0.451 2.1175q 0.451 0.8855 1.199 1.342q 0.748 0.4565 1.617 0.4565q 0.737 0 1.2595 -0.2035Z "/></symbol><symbol id="gDFD63563B41007A11BD67C9059C228DE" overflow="visible"><path d="M 0 0m 5.401 2.552h -3.696q 0.066 -0.957 0.484 -1.408q 0.418 -0.451 1.078 -0.451q 0.418 0 0.77 0.121q 0.352 0.121 0.737 0.385l 0.44 -0.605q -0.924 -0.726 -2.024 -0.726q -1.21 0 -1.8865 0.792q -0.6765 0.792 -0.6765 2.178q 0 0.902 0.2915 1.6005q 0.2915 0.6985 0.836 1.0945q 0.5445 0.396 1.2815 0.396q 1.155 0 1.771 -0.759q 0.616 -0.759 0.616 -2.101q 0 -0.253 -0.022 -0.517Z m -0.979 0.814q 0 0.858 -0.341 1.309q -0.341 0.451 -1.023 0.451q -1.243 0 -1.353 -1.826h 2.717v 0.066Z "/></symbol><symbol id="g264C7A3B799FCD38866F48E8E0D7C6E" overflow="visible"><path d="M 0 0m 5.0105 5.456q 0.4455 -0.473 0.4455 -1.298v -4.158h -1.012v 4.015q 0 0.616 -0.231 0.869q -0.231 0.253 -0.682 0.253q -0.462 0 -0.814 -0.264q -0.352 -0.264 -0.66 -0.759v -4.114h -1.012v 5.797h 0.869l 0.088 -0.858q 0.308 0.462 0.7645 0.726q 0.4565 0.264 1.0065 0.264q 0.792 0 1.2375 -0.473Z "/></symbol><symbol id="gDB5562003FDFA4265F856287DD4AD20E" overflow="visible"><path d="M 0 0m 2.057 0h -1.012v 5.797h 1.012v -5.797Z m 0 8.382q 0.198 -0.198 0.198 -0.495q 0 -0.297 -0.198 -0.4895q -0.198 -0.1925 -0.517 -0.1925q -0.308 0 -0.506 0.1925q -0.198 0.1925 -0.198 0.4895q 0 0.297 0.198 0.495q 0.198 0.198 0.506 0.198q 0.319 0 0.517 -0.198Z "/></symbol><symbol id="g7BC16E7DEF74318F213385DF6EABB849" overflow="visible"><path d="M 0 0m 3.971 0.264q -0.572 -0.396 -1.298 -0.396q -0.737 0 -1.1495 0.4235q -0.4125 0.4235 -0.4125 1.2265v 3.498h -1.012v 0.781h 1.012v 1.309l 1.012 0.121v -1.43h 1.375l -0.11 -0.781h -1.265v -3.454q 0 -0.451 0.1595 -0.6545q 0.1595 -0.2035 0.5335 -0.2035q 0.363 0 0.77 0.253l 0.385 -0.693Z "/></symbol><symbol id="gCED5173E4AECF9CBA2D93C69F309716C" overflow="visible"><path d="M 0 0m 8.316 7.1225q 1.056 -0.5885 1.595 -1.5785q 0.539 -0.99 0.539 -2.167q 0 -1.43 -0.55 -2.354q -0.55 -0.924 -1.617 -0.924q -0.616 0 -0.9625 0.341q -0.3465 0.341 -0.4455 0.792q -0.209 -0.484 -0.5995 -0.7975q -0.3905 -0.3135 -0.9845 -0.3135q -0.88 0 -1.3915 0.66q -0.5115 0.66 -0.5115 1.76q 0 1.386 0.66 2.1285q 0.66 0.7425 1.738 0.7425q 0.462 0 0.869 -0.099q 0.407 -0.099 0.858 -0.341v -2.849q 0 -0.682 0.187 -0.9625q 0.187 -0.2805 0.561 -0.2805q 1.166 0 1.166 2.475q 0 1.067 -0.418 1.859q -0.418 0.792 -1.232 1.2265q -0.814 0.4345 -1.991 0.4345q -1.21 0 -2.1175 -0.5445q -0.9075 -0.5445 -1.3915 -1.507q -0.484 -0.9625 -0.484 -2.1835q 0 -1.221 0.4675 -2.1615q 0.4675 -0.9405 1.3695 -1.463q 0.902 -0.5225 2.156 -0.5225q 1.045 0 2.112 0.374l 0.275 -0.781q -0.616 -0.22 -1.1605 -0.3245q -0.5445 -0.1045 -1.2375 -0.1045q -1.474 0 -2.607 0.6105q -1.133 0.6105 -1.7655 1.7435q -0.6325 1.133 -0.6325 2.629q 0 1.43 0.6325 2.585q 0.6325 1.155 1.7765 1.8205q 1.144 0.6655 2.607 0.6655q 1.474 0 2.53 -0.5885Z m -1.716 -5.3185v 2.717q -0.363 0.165 -0.781 0.165q -1.441 0 -1.441 -2.145q 0 -0.825 0.264 -1.254q 0.264 -0.429 0.77 -0.429q 0.825 0 1.188 0.946Z "/></symbol><symbol id="g234C88B46068ECC7D339409CA1F354F5" overflow="visible"><path d="M 0 0m 2.145 0.913h 3.113l -0.121 -0.913h -4.037v 7.579h 1.045v -6.666Z "/></symbol><symbol id="g34E986B3A1928C6094D933B8BAA562F7" overflow="visible"><path d="M 0 0m 6.413 0h -1.397l -3.08 6.435q 0.066 -0.759 0.1045 -1.4025q 0.0385 -0.6435 0.0385 -1.5565v -3.476h -0.979v 7.579h 1.364l 3.113 -6.446q -0.033 0.286 -0.088 1.001q -0.055 0.715 -0.055 1.309v 4.136h 0.979v -7.579Z "/></symbol><symbol id="g97F133250D1616F684A132C3FBFE91F9" overflow="visible"><path d="M 0 0m 3.63 0h -1.122l -2.442 7.579h 1.122l 1.903 -6.446l 1.903 6.446h 1.056l -2.42 -7.579Z "/></symbol><symbol id="g739C231C8693593E0DE116715AA944EE" overflow="visible"><path d="M 0 0m 3.6685 7.205q 0.5005 -0.264 0.7755 -0.7205q 0.275 -0.4565 0.275 -1.0285q 0 -0.671 -0.3025 -1.287q -0.3025 -0.616 -0.9295 -1.331q -0.627 -0.715 -1.903 -1.991h 3.311l -0.121 -0.847h -4.345v 0.803q 1.474 1.529 2.09 2.2385q 0.616 0.7095 0.88 1.2375q 0.264 0.528 0.264 1.133q 0 0.572 -0.33 0.8965q -0.33 0.3245 -0.88 0.3245q -0.451 0 -0.792 -0.187q -0.341 -0.187 -0.704 -0.616l -0.682 0.528q 0.451 0.561 1.001 0.836q 0.55 0.275 1.232 0.275q 0.66 0 1.1605 -0.264Z "/></symbol><symbol id="g1BB71BF5E06317C77CCE0F09DDAAD5BE" overflow="visible"><path d="M 0 0m 5.522 1.815h -0.957v -1.815h -0.979v 1.815h -3.146v 0.726l 2.211 4.928l 0.847 -0.352l -1.991 -4.499h 2.09l 0.088 1.98h 0.88v -1.98h 0.957v -0.803Z "/></symbol><symbol id="g97A66703FB64B4F642F929B686464CF0" overflow="visible"><path d="M 0 0m 3.553 0h -1.012v 6.281l -1.716 -1.045l -0.44 0.715l 2.277 1.408h 0.891v -7.359Z "/></symbol><symbol id="g3D6C7CE7B01BB1924630584F5F9C8ABC" overflow="visible"><path d="M 0 0m 4.9115 6.4955q 0.6215 -0.9735 0.6215 -2.8215q 0 -1.848 -0.6215 -2.827q -0.6215 -0.979 -1.8425 -0.979q -1.221 0 -1.8425 0.979q -0.6215 0.979 -0.6215 2.827q 0 1.848 0.6215 2.8215q 0.6215 0.9735 1.8425 0.9735q 1.221 0 1.8425 -0.9735Z m -2.904 -0.5335q -0.3465 -0.704 -0.3465 -2.288q 0 -1.584 0.3465 -2.2935q 0.3465 -0.7095 1.0615 -0.7095q 0.704 0 1.056 0.7095q 0.352 0.7095 0.352 2.2935q 0 1.573 -0.352 2.2825q -0.352 0.7095 -1.056 0.7095q -0.715 0 -1.0615 -0.704Z "/></symbol><symbol id="gAF69931B3AAD6A9C65A1F41D84AA499F" overflow="visible"><path d="M 0 0m 5.269 6.9905q 0.77 -0.5885 0.77 -1.7545q 0 -1.243 -0.803 -1.848q -0.803 -0.605 -2.134 -0.605h -0.957v -2.783h -1.045v 7.579h 1.991q 1.408 0 2.178 -0.5885Z m -0.8195 -3.0305q 0.4785 0.352 0.4785 1.265q 0 0.814 -0.4785 1.177q -0.4785 0.363 -1.3695 0.363h -0.935v -3.157h 0.913q 0.913 0 1.3915 0.352Z "/></symbol><symbol id="gE3192B596B83EB503C1A2641539AB722" overflow="visible"><path d="M 0 0m 4.411 4.576q 0.462 -0.264 0.737 -0.792q 0.275 -0.528 0.275 -1.287q 0 -0.781 -0.3135 -1.3805q -0.3135 -0.5995 -0.847 -0.924q -0.5335 -0.3245 -1.1825 -0.3245q -1.287 0 -1.881 0.9515q -0.594 0.9515 -0.594 2.6345q 0 1.199 0.3355 2.1065q 0.3355 0.9075 0.9625 1.408q 0.627 0.5005 1.485 0.5005q 0.836 0 1.518 -0.451l -0.396 -0.671q -0.517 0.319 -1.133 0.319q -0.792 0 -1.254 -0.759q -0.462 -0.759 -0.506 -2.035q 0.682 0.968 1.771 0.968q 0.561 0 1.023 -0.264Z m -0.352 -3.421q 0.341 0.484 0.341 1.309q 0 1.573 -1.188 1.573q -0.484 0 -0.891 -0.2695q -0.407 -0.2695 -0.693 -0.7425q 0.033 -1.21 0.3795 -1.782q 0.3465 -0.572 1.0725 -0.572q 0.638 0 0.979 0.484Z "/></symbol><symbol id="g4BDD1585FB452EA506ED181C5E36AB1D" overflow="visible"><path d="M 0 0m 1.859 1.177q 0.22 -0.22 0.22 -0.539q 0 -0.319 -0.22 -0.5445q -0.22 -0.2255 -0.55 -0.2255q -0.319 0 -0.539 0.2255q -0.22 0.2255 -0.22 0.5445q 0 0.319 0.22 0.539q 0.22 0.22 0.539 0.22q 0.33 0 0.55 -0.22Z m 0 4.048q 0.22 -0.22 0.22 -0.539q 0 -0.319 -0.22 -0.5445q -0.22 -0.2255 -0.55 -0.2255q -0.319 0 -0.539 0.2255q -0.22 0.2255 -0.22 0.5445q 0 0.319 0.22 0.539q 0.22 0.22 0.539 0.22q 0.33 0 0.55 -0.22Z "/></symbol><symbol id="g29E508FE03F34C4AD55CCC999B1B04E4" overflow="visible"><path d="M 0 0m 2.915 2.86q -0.253 0.11 -0.55 0.319q -0.176 0.132 -0.297 0.1925q -0.121 0.0605 -0.242 0.0605q -0.462 0 -0.825 -0.594l -0.616 0.319q 0.55 1.067 1.507 1.067q 0.319 0 0.561 -0.1045q 0.242 -0.1045 0.539 -0.3025q 0.198 -0.143 0.3245 -0.2035q 0.1265 -0.0605 0.2585 -0.0605q 0.473 0 0.803 0.528l 0.605 -0.33q -0.517 -1.001 -1.474 -1.001q -0.341 0 -0.594 0.11Z "/></symbol><symbol id="g2578C6BEE68A4C49F9C6242960114DAC" overflow="visible"><path d="M 0 0m 4.565 8.679l -2.541 -9.823l -0.869 0.209l 2.552 9.812l 0.858 -0.198Z "/></symbol><symbol id="gFE79C7D17A3E31CE5ABE9095AD60F8A6" overflow="visible"><path d="M 0 0m 4.268 7.4965q 0.539 -0.2145 1.045 -0.6655l -0.572 -0.638q -0.429 0.341 -0.8415 0.5005q -0.4125 0.1595 -0.8855 0.1595q -0.594 0 -0.979 -0.275q -0.385 -0.275 -0.385 -0.803q 0 -0.33 0.132 -0.5555q 0.132 -0.2255 0.4895 -0.4125q 0.3575 -0.187 1.0395 -0.396q 0.715 -0.22 1.188 -0.473q 0.473 -0.253 0.7645 -0.6985q 0.2915 -0.4455 0.2915 -1.1275q 0 -0.66 -0.3245 -1.166q -0.3245 -0.506 -0.935 -0.792q -0.6105 -0.286 -1.4465 -0.286q -1.573 0 -2.574 0.979l 0.583 0.649q 0.451 -0.385 0.924 -0.5775q 0.473 -0.1925 1.056 -0.1925q 0.704 0 1.166 0.3465q 0.462 0.3465 0.462 1.0065q 0 0.374 -0.143 0.6215q -0.143 0.2475 -0.4895 0.4455q -0.3465 0.198 -1.0065 0.396q -1.166 0.352 -1.705 0.847q -0.539 0.495 -0.539 1.342q 0 0.572 0.3025 1.023q 0.3025 0.451 0.847 0.704q 0.5445 0.253 1.2375 0.253q 0.759 0 1.298 -0.2145Z "/></symbol><symbol id="gB04AAC318B0B3BC2E4C6BFEE79C0E653" overflow="visible"><path d="M 0 0m 2.145 0h -1.045v 7.579h 1.045v -7.579Z "/></symbol><symbol id="g9C84024032C73DE15655455A834403CD" overflow="visible"><path d="M 0 0m 7.876 0h -1.012l -0.264 3.421q -0.165 2.013 -0.187 3.091l -1.639 -5.654h -0.979l -1.727 5.665q 0 -1.375 -0.143 -3.179l -0.253 -3.344h -0.99l 0.627 7.579h 1.408l 1.595 -5.511l 1.518 5.511h 1.419l 0.627 -7.579Z "/></symbol><symbol id="gC3BEE47D7E3B6F5CD5CCFCCF5CBECC87" overflow="visible"><path d="M 0 0m 5.1205 5.115q 0.6765 -0.814 0.6765 -2.211q 0 -0.902 -0.308 -1.5895q -0.308 -0.6875 -0.891 -1.067q -0.583 -0.3795 -1.386 -0.3795q -1.221 0 -1.903 0.814q -0.682 0.814 -0.682 2.211q 0 0.902 0.308 1.5895q 0.308 0.6875 0.891 1.067q 0.583 0.3795 1.397 0.3795q 1.221 0 1.8975 -0.814Z m -3.4045 -2.222q 0 -2.211 1.496 -2.211q 1.496 0 1.496 2.222q 0 2.211 -1.485 2.211q -1.507 0 -1.507 -2.222Z "/></symbol><symbol id="g1C08F9C41E7823ECBB6803040D421A8E" overflow="visible"><path d="M 0 0m 6.347 0h -1.375l -1.012 4.884l -1.045 -4.884h -1.342l -1.353 5.797h 1.012l 1.045 -5.093l 1.144 5.093h 1.133l 1.089 -5.093l 1.056 5.093h 0.968l -1.32 -5.797Z "/></symbol><symbol id="gE6E89815CE12D8BDBEEB6BDB745F5D9F" overflow="visible"><path d="M 0 0m 3.685 5.764q 0.473 -0.165 0.902 -0.495l -0.429 -0.638q -0.396 0.253 -0.7535 0.374q -0.3575 0.121 -0.7535 0.121q -0.495 0 -0.781 -0.2035q -0.286 -0.2035 -0.286 -0.5555q 0 -0.352 0.2695 -0.55q 0.2695 -0.198 0.9735 -0.385q 0.968 -0.242 1.4465 -0.66q 0.4785 -0.418 0.4785 -1.144q 0 -0.858 -0.6655 -1.309q -0.6655 -0.451 -1.6225 -0.451q -1.32 0 -2.189 0.759l 0.539 0.616q 0.737 -0.561 1.628 -0.561q 0.572 0 0.9075 0.2365q 0.3355 0.2365 0.3355 0.6435q 0 0.297 -0.121 0.4785q -0.121 0.1815 -0.418 0.319q -0.297 0.1375 -0.869 0.2915q -0.924 0.242 -1.3365 0.649q -0.4125 0.407 -0.4125 1.034q 0 0.451 0.2695 0.8195q 0.2695 0.3685 0.748 0.572q 0.4785 0.2035 1.0725 0.2035q 0.594 0 1.067 -0.165Z "/></symbol><symbol id="gEC13A8031F914418A67557E78BBC655F" overflow="visible"><path d="M 0 0m 0.66 3.872h 3.113v -0.858h -3.113v 0.858Z "/></symbol><symbol id="gAECBAB47E199564F2DED0EC3B8AD0AF7" overflow="visible"><path d="M 0 0m 1.859 1.177q 0.22 -0.22 0.22 -0.539q 0 -0.319 -0.22 -0.5445q -0.22 -0.2255 -0.55 -0.2255q -0.319 0 -0.539 0.2255q -0.22 0.2255 -0.22 0.5445q 0 0.319 0.22 0.539q 0.22 0.22 0.539 0.22q 0.33 0 0.55 -0.22Z "/></symbol><symbol id="gC56907FAF84E4D2FECA40A3CBF3D5F8" overflow="visible"><path d="M 0 0m 0.682 4.081h 4.136v -0.847h -4.136v 0.847Z "/></symbol><symbol id="g7FFAFC05846FF81C12B683BFEAE77CAD" overflow="visible"><path d="M 0 0m 7.678 -0.913c 0.176 0 0.264 0.088 0.264 0.264v 6.798c 0 0.176 -0.088 0.264 -0.264 0.264h -6.798c -0.176 0 -0.264 -0.088 -0.264 -0.264v -6.798c 0 -0.176 0.088 -0.264 0.264 -0.264Z m -0.253 6.809v -6.292h -6.292v 6.292Z "/></symbol><symbol id="g463259C9BC5161EE9D594BFC2C9E49F5" overflow="visible"><path d="M 0 0m 4.708 4.719l -1.342 -1.342l 1.342 -1.342l -0.616 -0.616l -1.342 1.342l -1.342 -1.342l -0.616 0.616l 1.342 1.342l -1.342 1.342l 0.616 0.627l 1.342 -1.353l 1.342 1.353l 0.616 -0.627Z "/></symbol><symbol id="g3CFDDD1B643941499479B4C70AB4D630" overflow="visible"><path d="M 0 0m 7.346191406 12.899414063q -1.104003906 -1.892578125 -1.647705078 -3.772705078q -0.543701172 -1.880126953 -0.543701172 -3.789306641q 0 -1.900878906 0.543701172 -3.78515625q 0.543701172 -1.884277344 1.647705078 -3.793457031h -1.328125q -1.253417969 1.975585938 -1.867675781 3.847412109q -0.614257813 1.871826172 -0.614257813 3.731201172q 0 1.851074219 0.614257813 3.727050781q 0.614257813 1.875976563 1.867675781 3.834960938h 1.328125Z "/></symbol><symbol id="gDD41AEACCF9F693E2F2C80F3A57E4C27" overflow="visible"><path d="M 0 0m 7.620117188 4.640136719q 0 1.776367188 -0.564453125 2.681152344q -0.564453125 0.904785156 -1.668457031 0.904785156q -1.112304688 0 -1.685058594 -0.908935547q -0.572753906 -0.908935547 -0.572753906 -2.677001953q 0 -1.759765625 0.572753906 -2.672851563q 0.572753906 -0.913085938 1.685058594 -0.913085938q 1.104003906 0 1.668457031 0.904785156q 0.564453125 0.904785156 0.564453125 2.681152344Z m -4.490722656 3.469726563q 0.365234375 0.680664063 1.008544922 1.045898438q 0.643310547 0.365234375 1.489990234 0.365234375q 1.676757813 0 2.639648438 -1.290771484q 0.962890625 -1.290771484 0.962890625 -3.556884766q 0 -2.299316406 -0.967041016 -3.606689453q -0.967041016 -1.307373047 -2.652099609 -1.307373047q -0.830078125 0 -1.465087891 0.361083984q -0.635009766 0.361083984 -1.016845703 1.050048828v -1.170410156h -1.52734375v 12.916015625h 1.52734375v -4.806152344Z "/></symbol><symbol id="g97F362F3C5E072A6E72577BADF5DF516" overflow="visible"><path d="M 0 0m 5.827148438 4.673339844h -0.506347656q -1.336425781 0 -2.012939453 -0.468994141q -0.676513672 -0.468994141 -0.676513672 -1.398681641q 0 -0.838378906 0.506347656 -1.303222656q 0.506347656 -0.46484375 1.402832031 -0.46484375q 1.26171875 0 1.983886719 0.875732422q 0.722167969 0.875732422 0.73046875 2.419677734v 0.340332031h -1.427734375Z m 2.963378906 0.630859375v -5.304199219h -1.535644531v 1.377929688q -0.489746094 -0.830078125 -1.232666016 -1.224365234q -0.742919922 -0.394287109 -1.805419922 -0.394287109q -1.419433594 0 -2.266113281 0.801025391q -0.846679688 0.801025391 -0.846679688 2.145751953q 0 1.552246094 1.041748047 2.357421875q 1.041748047 0.805175781 3.058837891 0.805175781h 2.050292969v 0.240722656q -0.008300781 1.112304688 -0.564453125 1.614501953q -0.556152344 0.502197266 -1.776367188 0.502197266q -0.780273438 0 -1.577148438 -0.224121094q -0.796875 -0.224121094 -1.552246094 -0.655761719v 1.52734375q 0.846679688 0.323730469 1.622802734 0.485595703q 0.776123047 0.161865234 1.506591797 0.161865234q 1.153808594 0 1.971435547 -0.340332031q 0.817626953 -0.340332031 1.323974609 -1.020996094q 0.315429688 -0.415039063 0.448242188 -1.025146484q 0.1328125 -0.610107422 0.1328125 -1.830322266Z "/></symbol><symbol id="gEBD5690478F669BABE666D2D9FFB163D" overflow="visible"><path d="M 0 0m 8.076660156 8.973144531v -1.494140625q -0.655761719 0.381835938 -1.319824219 0.572753906q -0.6640625 0.190917969 -1.353027344 0.190917969q -1.037597656 0 -1.548095703 -0.336181641q -0.510498047 -0.336181641 -0.510498047 -1.025146484q 0 -0.622558594 0.381835938 -0.9296875q 0.381835938 -0.307128906 1.900878906 -0.59765625l 0.614257813 -0.116210938q 1.137207031 -0.215820313 1.722412109 -0.86328125q 0.585205078 -0.647460938 0.585205078 -1.685058594q 0 -1.377929688 -0.979492188 -2.154052734q -0.979492188 -0.776123047 -2.72265625 -0.776123047q -0.688964844 0 -1.444335938 0.145263672q -0.755371094 0.145263672 -1.635253906 0.435791016v 1.577148438q 0.854980469 -0.439941406 1.635253906 -0.659912109q 0.780273438 -0.219970703 1.477539063 -0.219970703q 1.012695313 0 1.568847656 0.410888672q 0.556152344 0.410888672 0.556152344 1.149658203q 0 1.0625 -2.033691406 1.469238281l -0.06640625 0.016601563l -0.572753906 0.116210938q -1.319824219 0.257324219 -1.92578125 0.867431641q -0.605957031 0.610107422 -0.605957031 1.664306641q 0 1.336425781 0.904785156 2.062744141q 0.904785156 0.726318359 2.581542969 0.726318359q 0.747070313 0 1.436035156 -0.136962891q 0.688964844 -0.136962891 1.353027344 -0.410888672Z "/></symbol><symbol id="g1C1D22176C6EE81E930502DE93833E64" overflow="visible"><path d="M 0 0m 9.23046875 5.030273438v -0.747070313h -6.615722656v -0.049804688q 0 -1.519042969 0.792724609 -2.349121094q 0.792724609 -0.830078125 2.237060547 -0.830078125q 0.73046875 0 1.52734375 0.232421875q 0.796875 0.232421875 1.701660156 0.705566406v -1.519042969q -0.871582031 -0.356933594 -1.680908203 -0.535400391q -0.809326172 -0.178466797 -1.564697266 -0.178466797q -2.166503906 0 -3.38671875 1.299072266q -1.220214844 1.299072266 -1.220214844 3.581787109q 0 2.224609375 1.1953125 3.552734375q 1.1953125 1.328125 3.1875 1.328125q 1.776367188 0 2.801513672 -1.203613281q 1.025146484 -1.203613281 1.025146484 -3.287109375Z m -1.52734375 0.448242188q -0.033203125 1.344726563 -0.635009766 2.046142578q -0.601806641 0.701416016 -1.730712891 0.701416016q -1.104003906 0 -1.817871094 -0.73046875q -0.713867188 -0.73046875 -0.846679688 -2.025390625l 5.030273438 0.008300781Z "/></symbol><symbol id="gA3500A8653C93D5112C64A3C1072FF03" overflow="visible"><path d="M 0 0m 2.888671875 12.899414063h 1.328125q 1.253417969 -1.958984375 1.867675781 -3.834960938q 0.614257813 -1.875976563 0.614257813 -3.727050781q 0 -1.867675781 -0.614257813 -3.743652344q -0.614257813 -1.875976563 -1.867675781 -3.834960938h -1.328125q 1.104003906 1.92578125 1.647705078 3.810058594q 0.543701172 1.884277344 0.543701172 3.768554688q 0 1.892578125 -0.543701172 3.776855469q -0.543701172 1.884277344 -1.647705078 3.78515625Z "/></symbol><symbol id="g262DFB9DB872D3B6DA4D2095909EF5C6" overflow="visible"><path d="M 0 0m 9.23046875 10.234863281h -5.270996094v -2.672851563h 4.797851563v -2.158203125h -4.797851563v -5.403808594h -2.448730469v 12.393066406h 7.719726563v -2.158203125Z "/></symbol><symbol id="g5411590982923BD0DE3A9A0751267DE4" overflow="visible"><path d="M 0 0m 7.23828125 2.241210938v 2.365722656h -1.676757813v 2.05859375h 3.818359375v -5.677734375q -0.705566406 -0.605957031 -1.556396484 -0.917236328q -0.850830078 -0.311279297 -1.822021484 -0.311279297q -2.407226563 0 -3.71875 1.672607422q -1.311523438 1.672607422 -1.311523438 4.752197266q 0 3.129394531 1.323974609 4.78125q 1.323974609 1.651855469 3.822509766 1.651855469q 0.747070313 0 1.469238281 -0.211669922q 0.722167969 -0.211669922 1.353027344 -0.610107422v -2.714355469q -0.514648438 0.6640625 -1.182861328 1.000244141q -0.668212891 0.336181641 -1.465087891 0.336181641q -1.39453125 0 -2.083496094 -1.050048828q -0.688964844 -1.050048828 -0.688964844 -3.183349609q 0 -2.066894531 0.6640625 -3.145996094q 0.6640625 -1.079101563 1.934082031 -1.079101563q 0.381835938 0 0.6640625 0.070556641q 0.282226563 0.070556641 0.456542969 0.211669922Z "/></symbol><symbol id="g469D0CE696C48CDB73C0DA872E4DDADF" overflow="visible"><path d="M 0 0m 9.147460938 0.456542969q -0.846679688 -0.348632813 -1.7265625 -0.522949219q -0.879882813 -0.174316406 -1.859375 -0.174316406q -2.332519531 0 -3.565185547 1.249267578q -1.232666016 1.249267578 -1.232666016 3.598388672q 0 2.274414063 1.187011719 3.594238281q 1.187011719 1.319824219 3.237304688 1.319824219q 2.066894531 0 3.208251953 -1.224365234q 1.141357422 -1.224365234 1.141357422 -3.448974609v -0.987792969h -6.300292969q 0.008300781 -1.095703125 0.647460938 -1.635253906q 0.639160156 -0.539550781 1.909179688 -0.539550781q 0.838378906 0 1.651855469 0.240722656q 0.813476563 0.240722656 1.701660156 0.763671875v -2.232910156Z m -2.05859375 5.229492188q -0.016601563 0.962890625 -0.493896484 1.456787109q -0.477294922 0.493896484 -1.406982422 0.493896484q -0.838378906 0 -1.336425781 -0.510498047q -0.498046875 -0.510498047 -0.589355469 -1.448486328l 3.826660156 0.008300781Z "/></symbol><symbol id="g62A58D32B9DFCE5D293A75DC0D978960" overflow="visible"><path d="M 0 0m 8.890136719 6.034667969v -6.034667969h -2.415527344v 5.661132813q 0 1.012695313 -0.286376953 1.448486328q -0.286376953 0.435791016 -0.933837891 0.435791016q -0.655761719 0 -1.033447266 -0.589355469q -0.377685547 -0.589355469 -0.377685547 -1.635253906v -5.320800781h -2.415527344v 9.296875h 2.415527344v -1.39453125q 0.257324219 0.771972656 0.879882813 1.1953125q 0.622558594 0.423339844 1.502441406 0.423339844q 1.319824219 0 1.9921875 -0.875732422q 0.672363281 -0.875732422 0.672363281 -2.610595703Z "/></symbol><symbol id="gA12AE4B0F7592E66C503B7C6491514F6" overflow="visible"><path d="M 0 0m 1.834472656 9.296875h 4.814453125v -7.429199219h 3.021484375v -1.867675781h -8.483398438v 1.867675781h 3.029785156v 5.561523438h -2.382324219v 1.867675781Z m 2.382324219 4.523925781h 2.432128906v -2.838867188h -2.432128906v 2.838867188Z "/></symbol><symbol id="g799DD4A1BCE3DFE3D6BAADA09C50B77C" overflow="visible"><path d="M 0 0m 5.727539063 11.936523438v -2.639648438h 3.179199219v -1.867675781h -3.179199219v -4.399414063q 0 -0.622558594 0.302978516 -0.892333984q 0.302978516 -0.269775391 1.008544922 -0.269775391h 1.867675781v -1.867675781h -2.041992188q -2.091796875 0 -2.830566406 0.668212891q -0.738769531 0.668212891 -0.738769531 2.477783203v 4.283203125h -2.374023438v 1.867675781h 2.374023438v 2.639648438h 2.432128906Z "/></symbol><symbol id="g7CAC5FD09B90E00C151870105836E055" overflow="visible"><path d="M 0 0m 8.076660156 4.523925781q 0 0.937988281 -0.423339844 1.469238281q -0.423339844 0.53125 -1.162109375 0.53125q -0.738769531 0 -1.157958984 -0.53125q -0.419189453 -0.53125 -0.419189453 -1.469238281q 0 -0.946289063 0.419189453 -1.477539063q 0.419189453 -0.53125 1.157958984 -0.53125q 0.738769531 0 1.162109375 0.53125q 0.423339844 0.53125 0.423339844 1.477539063Z m 1.543945313 -3.403320313h -1.626953125v 0.680664063q -0.315429688 -0.439941406 -0.742919922 -0.643310547q -0.427490234 -0.203369141 -1.025146484 -0.203369141q -1.361328125 0 -2.195556641 0.979492188q -0.834228516 0.979492188 -0.834228516 2.58984375q 0 1.602050781 0.830078125 2.577392578q 0.830078125 0.975341797 2.199707031 0.975341797q 0.589355469 0 1.037597656 -0.203369141q 0.448242188 -0.203369141 0.73046875 -0.593505859v 0.340332031q 0 1.12890625 -0.618408203 1.743164063q -0.618408203 0.614257813 -1.763916016 0.614257813q -1.7265625 0 -2.818115234 -1.519042969q -1.091552734 -1.519042969 -1.091552734 -3.951171875q 0 -2.548339844 1.26171875 -4.054931641q 1.26171875 -1.506591797 3.361816406 -1.506591797q 0.6640625 0 1.286621094 0.195068359q 0.622558594 0.195068359 1.1953125 0.585205078l 0.763671875 -1.4609375q -0.672363281 -0.456542969 -1.465087891 -0.684814453q -0.792724609 -0.228271484 -1.697509766 -0.228271484q -2.905273438 0 -4.631835938 1.934082031q -1.7265625 1.934082031 -1.7265625 5.221191406q 0 3.212402344 1.552246094 5.142333984q 1.552246094 1.929931641 4.108886719 1.929931641q 1.809570313 0 2.859619141 -1.091552734q 1.050048828 -1.091552734 1.050048828 -2.975830078v -6.391601563Z "/></symbol><symbol id="g7DF37EFBE6250D6C05C112FABA91491E" overflow="visible"><path d="M 0 0m 1.867675781 0v 12.393066406h 2.448730469v -10.234863281h 5.237792969v -2.158203125h -7.686523438Z "/></symbol><symbol id="g945D807068C4E0BF4066970D75CCD838" overflow="visible"><path d="M 0 0m 0.987792969 12.393066406h 2.631347656l 3.453125 -9.006347656v 9.006347656h 2.158203125v -12.393066406h -2.614746094l -3.469726563 9.006347656v -9.006347656h -2.158203125v 12.393066406Z "/></symbol><symbol id="g810256C6540BA22797C23B04963FDED7" overflow="visible"><path d="M 0 0m 5.11328125 2.041992188l 2.183105469 10.351074219h 2.465332031l -2.946777344 -12.393066406h -3.395019531l -2.946777344 12.393066406h 2.465332031l 2.174804688 -10.351074219Z "/></symbol><symbol id="gCBC3E29813FCCFEE6C1A2A5F6E3BC247" overflow="visible"><path d="M 0 0m 3.602539063 2.158203125h 5.221191406v -2.158203125h -7.869140625v 2.091796875l 1.328125 1.411132813q 2.365722656 2.515136719 2.872070313 3.096191406q 0.622558594 0.713867188 0.896484375 1.265869141q 0.273925781 0.552001953 0.273925781 1.091552734q 0 0.830078125 -0.502197266 1.282470703q -0.502197266 0.452392578 -1.423583984 0.452392578q -0.655761719 0 -1.473388672 -0.261474609q -0.817626953 -0.261474609 -1.705810547 -0.759521484v 2.282714844q 0.888183594 0.323730469 1.739013672 0.493896484q 0.850830078 0.170166016 1.631103516 0.170166016q 1.967285156 0 3.092041016 -0.917236328q 1.124755859 -0.917236328 1.124755859 -2.502685547q 0 -0.73046875 -0.244873047 -1.369628906q -0.244873047 -0.639160156 -0.842529297 -1.419433594q -0.439941406 -0.564453125 -2.415527344 -2.540039063q -1.070800781 -1.070800781 -1.701660156 -1.709960938Z "/></symbol><symbol id="gDCED3D64F3726A03F96E4D5A49E17F25" overflow="visible"><path d="M 0 0m 5.760742188 9.670410156l -3.129394531 -4.897460938h 3.129394531v 4.897460938Z m -0.215820313 2.72265625h 2.564941406v -7.620117188h 1.361328125v -2.100097656h -1.361328125v -2.672851563h -2.349121094v 2.672851563h -4.9140625v 2.374023438l 4.698242188 7.346191406Z "/></symbol><symbol id="gF0F678BF0EC2C4B36B7275CF57BEAEDA" overflow="visible"><path d="M 0 0m 1.560546875 2.158203125h 2.739257813v 8.043457031l -2.548339844 -0.630859375v 2.208007813l 2.564941406 0.614257813h 2.365722656v -10.234863281h 2.739257813v -2.158203125h -7.860839844v 2.158203125Z "/></symbol><symbol id="gE255C1CF6E52D8AA24692862E31287E7" overflow="visible"><path d="M 0 0m 4.083984375 6.184082031q 0 0.439941406 0.298828125 0.738769531q 0.298828125 0.298828125 0.73046875 0.298828125q 0.439941406 0 0.738769531 -0.298828125q 0.298828125 -0.298828125 0.298828125 -0.738769531q 0 -0.431640625 -0.298828125 -0.73046875q -0.298828125 -0.298828125 -0.738769531 -0.298828125q -0.431640625 0 -0.73046875 0.294677734q -0.298828125 0.294677734 -0.298828125 0.734619141Z m 1.029296875 4.357910156q -0.846679688 0 -1.236816406 -1.037597656q -0.390136719 -1.037597656 -0.390136719 -3.3203125q 0 -2.274414063 0.390136719 -3.312011719q 0.390136719 -1.037597656 1.236816406 -1.037597656q 0.854980469 0 1.245117188 1.037597656q 0.390136719 1.037597656 0.390136719 3.312011719q 0 2.282714844 -0.390136719 3.3203125q -0.390136719 1.037597656 -1.245117188 1.037597656Z m -4.092285156 -4.357910156q 0 3.220703125 1.020996094 4.826904297q 1.020996094 1.606201172 3.071289063 1.606201172q 2.05859375 0 3.079589844 -1.602050781q 1.020996094 -1.602050781 1.020996094 -4.831054688q 0 -3.220703125 -1.020996094 -4.822753906q -1.020996094 -1.602050781 -3.079589844 -1.602050781q -2.050292969 0 -3.071289063 1.606201172q -1.020996094 1.606201172 -1.020996094 4.818603516Z "/></symbol><symbol id="g27F8E7FCC67AF7B4BBE3A40548C1DFF9" overflow="visible"><path d="M 0 0m 3.793457031 10.334472656v -3.635742188h 1.004394531q 1.203613281 0 1.689208984 0.406738281q 0.485595703 0.406738281 0.485595703 1.411132813q 0 1.004394531 -0.485595703 1.411132813q -0.485595703 0.406738281 -1.689208984 0.406738281h -1.004394531Z m -2.448730469 2.05859375h 3.361816406q 2.564941406 0 3.689697266 -0.913085938q 1.124755859 -0.913085938 1.124755859 -2.963378906q 0 -2.050292969 -1.124755859 -2.963378906q -1.124755859 -0.913085938 -3.689697266 -0.913085938h -0.913085938v -4.640136719h -2.448730469v 12.393066406Z "/></symbol><symbol id="gEEA35DAF177FE2F256CD9E27C60E43CF" overflow="visible"><path d="M 0 0m 5.337402344 6.208984375q -0.796875 0 -1.216064453 -0.576904297q -0.419189453 -0.576904297 -0.419189453 -1.672607422q 0 -1.087402344 0.419189453 -1.664306641q 0.419189453 -0.576904297 1.216064453 -0.576904297q 0.796875 0 1.224365234 0.576904297q 0.427490234 0.576904297 0.427490234 1.664306641q 0 1.087402344 -0.427490234 1.668457031q -0.427490234 0.581054688 -1.224365234 0.581054688Z m 3.212402344 5.893554688v -2.224609375q -0.655761719 0.373535156 -1.257568359 0.560302734q -0.601806641 0.186767578 -1.157958984 0.186767578q -1.328125 0 -2.021240234 -0.892333984q -0.693115234 -0.892333984 -0.726318359 -2.635498047q 0.390136719 0.539550781 0.99609375 0.809326172q 0.605957031 0.269775391 1.427734375 0.269775391q 1.676757813 0 2.58984375 -1.058349609q 0.913085938 -1.058349609 0.913085938 -3.000732422q 0 -2.083496094 -1.025146484 -3.229003906q -1.025146484 -1.145507813 -2.884521484 -1.145507813q -2.266113281 0 -3.291259766 1.519042969q -1.025146484 1.519042969 -1.025146484 4.905761719q 0 3.220703125 1.253417969 4.826904297q 1.253417969 1.606201172 3.760253906 1.606201172q 0.581054688 0 1.199462891 -0.124511719q 0.618408203 -0.124511719 1.249267578 -0.373535156Z "/></symbol><symbol id="gB21CD981B49830146061342BD6165D74" overflow="visible"><path d="M 0 0m 4.059082031 8.823730469h 2.091796875v -2.515136719h -2.091796875v 2.515136719Z m 0 -6.291992188h 2.091796875v -2.531738281h -2.091796875v 2.531738281Z "/></symbol><symbol id="g5E7AF24ED4F26B373074CE9850EAF02B" overflow="visible"><path d="M 0 0m 9.504394531 6.731933594v -1.934082031q -0.622558594 -0.498046875 -1.216064453 -0.726318359q -0.593505859 -0.228271484 -1.249267578 -0.228271484q -0.747070313 0 -1.685058594 0.423339844q -0.182617188 0.083007813 -0.273925781 0.116210938q -0.639160156 0.282226563 -1.066650391 0.381835938q -0.427490234 0.099609375 -0.850830078 0.099609375q -0.647460938 0 -1.232666016 -0.240722656q -0.585205078 -0.240722656 -1.199462891 -0.763671875v 1.900878906q 0.647460938 0.506347656 1.253417969 0.73046875q 0.605957031 0.224121094 1.294921875 0.224121094q 0.439941406 0 0.854980469 -0.091308594q 0.415039063 -0.091308594 1.029296875 -0.348632813q 0.091308594 -0.041503906 0.273925781 -0.124511719q 0.962890625 -0.456542969 1.734863281 -0.456542969q 0.581054688 0 1.153808594 0.253173828q 0.572753906 0.253173828 1.178710938 0.784423828Z "/></symbol><symbol id="g8AB2D0DD7CA882FB8E32DAACD621E014" overflow="visible"><path d="M 0 0m 7.462402344 12.393066406h 1.834472656l -6.524414063 -13.970214844h -1.834472656l 6.524414063 13.970214844Z "/></symbol><symbol id="gE33E94B2D9DE830A6D3815EB959F0CA2" overflow="visible"><path d="M 0 0m 4.233398438 5.437011719q -1.851074219 0.705566406 -2.506835938 1.481689453q -0.655761719 0.776123047 -0.655761719 2.087646484q 0 1.685058594 1.079101563 2.647949219q 1.079101563 0.962890625 2.963378906 0.962890625q 0.854980469 0 1.709960938 -0.195068359q 0.854980469 -0.195068359 1.693359375 -0.576904297v -2.390625q -0.788574219 0.556152344 -1.602050781 0.846679688q -0.813476563 0.290527344 -1.610351563 0.290527344q -0.888183594 0 -1.361328125 -0.356933594q -0.473144531 -0.356933594 -0.473144531 -1.020996094q 0 -0.514648438 0.344482422 -0.850830078q 0.344482422 -0.336181641 1.440185547 -0.742919922l 1.054199219 -0.3984375q 1.494140625 -0.547851563 2.199707031 -1.452636719q 0.705566406 -0.904785156 0.705566406 -2.282714844q 0 -1.875976563 -1.108154297 -2.801513672q -1.108154297 -0.925537109 -3.349365234 -0.925537109q -0.921386719 0 -1.846923828 0.219970703q -0.925537109 0.219970703 -1.788818359 0.651611328v 2.531738281q 0.979492188 -0.697265625 1.896728516 -1.037597656q 0.917236328 -0.340332031 1.813720703 -0.340332031q 0.904785156 0 1.402832031 0.410888672q 0.498046875 0.410888672 0.498046875 1.149658203q 0 0.556152344 -0.33203125 0.975341797q -0.33203125 0.419189453 -0.962890625 0.659912109l -1.203613281 0.456542969Z "/></symbol><symbol id="gBC500579698ABD83BC473BD15D5440AB" overflow="visible"><path d="M 0 0m 1.427734375 10.234863281v 2.158203125h 7.379394531v -2.158203125h -2.465332031v -8.076660156h 2.465332031v -2.158203125h -7.379394531v 2.158203125h 2.465332031v 8.076660156h -2.465332031Z "/></symbol><symbol id="g87D82DA202BEE33D8E73C110AFAB8F65" overflow="visible"><path d="M 0 0m 0.713867188 12.393066406h 2.921875l 1.477539063 -5.437011719l 1.469238281 5.437011719h 2.938476563v -12.393066406h -2.108398438v 9.927734375l -1.311523438 -5.420410156h -1.950683594l -1.328125 5.420410156v -9.927734375h -2.108398438v 12.393066406Z "/></symbol><symbol id="g3D52463DA79A3DF3237403235F7ACD57" overflow="visible"><path d="M 0 0m 5.11328125 7.545410156q -0.871582031 0 -1.369628906 -0.767822266q -0.498046875 -0.767822266 -0.498046875 -2.137451172q 0 -1.369628906 0.498046875 -2.137451172q 0.498046875 -0.767822266 1.369628906 -0.767822266q 0.879882813 0 1.377929688 0.767822266q 0.498046875 0.767822266 0.498046875 2.137451172q 0 1.369628906 -0.498046875 2.137451172q -0.498046875 0.767822266 -1.377929688 0.767822266Z m -4.299804688 -2.905273438q 0 2.249511719 1.166259766 3.565185547q 1.166259766 1.315673828 3.133544922 1.315673828q 1.975585938 0 3.141845703 -1.315673828q 1.166259766 -1.315673828 1.166259766 -3.565185547q 0 -2.249511719 -1.166259766 -3.565185547q -1.166259766 -1.315673828 -3.141845703 -1.315673828q -1.967285156 0 -3.133544922 1.315673828q -1.166259766 1.315673828 -1.166259766 3.565185547Z "/></symbol><symbol id="gA0E887F2D1B5A35DF0D0C6861E8AAA1" overflow="visible"><path d="M 0 0m 0 9.296875h 2.025390625l 1.104003906 -7.122070313l 1.004394531 4.689941406h 1.967285156l 0.987792969 -4.689941406l 1.120605469 7.122070313h 2.025390625l -1.685058594 -9.296875h -2.307617188l -1.12890625 4.831054688l -1.120605469 -4.831054688h -2.307617188l -1.685058594 9.296875Z "/></symbol><symbol id="gAC118E33209F9115DE3D4D2F45EEFAB5" overflow="visible"><path d="M 0 0m 8.226074219 9.006347656v -2.125q -0.672363281 0.431640625 -1.398681641 0.651611328q -0.726318359 0.219970703 -1.456787109 0.219970703q -0.813476563 0 -1.228515625 -0.236572266q -0.415039063 -0.236572266 -0.415039063 -0.701416016q 0 -0.6640625 1.776367188 -1.079101563l 0.091308594 -0.024902344l 0.697265625 -0.166015625q 1.328125 -0.315429688 1.946533203 -1.016845703q 0.618408203 -0.701416016 0.618408203 -1.896728516q 0 -1.436035156 -0.942138672 -2.154052734q -0.942138672 -0.718017578 -2.834716797 -0.718017578q -0.838378906 0 -1.718261719 0.145263672q -0.879882813 0.145263672 -1.784667969 0.435791016v 2.125q 0.805175781 -0.456542969 1.639404297 -0.697265625q 0.834228516 -0.240722656 1.614501953 -0.240722656q 0.854980469 0 1.294921875 0.249023438q 0.439941406 0.249023438 0.439941406 0.722167969q 0 0.46484375 -0.311279297 0.713867188q -0.311279297 0.249023438 -1.481689453 0.53125l -0.672363281 0.149414063q -1.39453125 0.315429688 -2.033691406 0.987792969q -0.639160156 0.672363281 -0.639160156 1.801269531q 0 1.344726563 0.971191406 2.091796875q 0.971191406 0.747070313 2.730957031 0.747070313q 0.788574219 0 1.572998047 -0.128662109q 0.784423828 -0.128662109 1.523193359 -0.385986328Z "/></symbol><symbol id="g50D1EB3C57E5AA622D3DAFF4E83417F8" overflow="visible"><path d="M 0 0m 2.498535156 6.101074219h 5.237792969v -2.415527344h -5.237792969v 2.415527344Z "/></symbol><symbol id="g75779F6A002B347A5C8C6B19432E8EB6" overflow="visible"><path d="M 0 0m 3.727050781 3.046386719h 2.764160156v -3.046386719h -2.764160156v 3.046386719Z "/></symbol><symbol id="g66EB6D779E33A4AE3FC58B34B0D63DE9" overflow="visible"><path d="M 0 0m 5.744140625 4.814453125v -3.602539063q 0.913085938 0.024902344 1.427734375 0.506347656q 0.514648438 0.481445313 0.514648438 1.311523438q 0 0.771972656 -0.46484375 1.199462891q -0.46484375 0.427490234 -1.477539063 0.585205078Z m -0.830078125 1.577148438v 3.428222656q -0.86328125 -0.033203125 -1.348876953 -0.498046875q -0.485595703 -0.46484375 -0.485595703 -1.245117188q 0 -0.713867188 0.452392578 -1.12890625q 0.452392578 -0.415039063 1.382080078 -0.556152344Z m 0.830078125 -8.890136719h -0.830078125l -0.008300781 2.498535156q -0.846679688 0.041503906 -1.680908203 0.232421875q -0.834228516 0.190917969 -1.647705078 0.53125v 1.494140625q 0.830078125 -0.514648438 1.672607422 -0.788574219q 0.842529297 -0.273925781 1.664306641 -0.290527344v 3.801757813q -1.66015625 0.257324219 -2.498535156 1.012695313q -0.838378906 0.755371094 -0.838378906 2.000488281q 0 1.303222656 0.875732422 2.079345703q 0.875732422 0.776123047 2.461181641 0.892333984v 1.950683594h 0.830078125l 0.008300781 -1.950683594q 0.655761719 -0.041503906 1.328125 -0.166015625q 0.672363281 -0.124511719 1.369628906 -0.340332031v -1.436035156q -0.705566406 0.356933594 -1.373779297 0.552001953q -0.668212891 0.195068359 -1.332275391 0.228271484v -3.577636719q 1.709960938 -0.257324219 2.606445313 -1.0625q 0.896484375 -0.805175781 0.896484375 -2.083496094q 0 -1.278320313 -0.967041016 -2.133300781q -0.967041016 -0.854980469 -2.527587891 -0.9296875l -0.008300781 -2.515136719Z "/></symbol><symbol id="g2C999873CC542BF0A1AAF4E239C5C59E" overflow="visible"><path d="M 0 0m 6.864 2.652q 0 -0.828 -0.342 -1.458q -0.342 -0.63 -0.996 -0.984q -0.654 -0.354 -1.566 -0.354q -1.38 0 -2.13 0.762q -0.75 0.762 -0.75 2.034v 5.616h 1.14v -5.532q 0 -0.96 0.432 -1.44q 0.432 -0.48 1.308 -0.48q 0.888 0 1.32 0.474q 0.432 0.474 0.432 1.446v 5.532h 1.152v -5.616Z "/></symbol><symbol id="g2B4F08684EDC745046A4747B95D20F66" overflow="visible"><path d="M 0 0m 4.332 0.288q -0.624 -0.432 -1.416 -0.432q -0.804 0 -1.254 0.462q -0.45 0.462 -0.45 1.338v 3.816h -1.104v 0.852h 1.104v 1.428l 1.104 0.132v -1.56h 1.5l -0.12 -0.852h -1.38v -3.768q 0 -0.492 0.174 -0.714q 0.174 -0.222 0.582 -0.222q 0.396 0 0.84 0.276l 0.42 -0.756Z "/></symbol><symbol id="g5F16FC47296EA1F560CE5822D0D26835" overflow="visible"><path d="M 0 0m 2.244 0h -1.104v 6.324h 1.104v -6.324Z m 0 9.144q 0.216 -0.216 0.216 -0.54q 0 -0.324 -0.216 -0.534q -0.216 -0.21 -0.564 -0.21q -0.336 0 -0.552 0.21q -0.216 0.21 -0.216 0.534q 0 0.324 0.216 0.54q 0.216 0.216 0.552 0.216q 0.348 0 0.564 -0.216Z "/></symbol><symbol id="g14E8E782F147F5A77416F7EA687D500B" overflow="visible"><path d="M 0 0m 1.434 0.222q -0.354 0.366 -0.354 1.026v 7.62l 1.104 0.132v -7.728q 0 -0.264 0.09 -0.384q 0.09 -0.12 0.306 -0.12q 0.228 0 0.408 0.072l 0.288 -0.768q -0.396 -0.216 -0.876 -0.216q -0.612 0 -0.966 0.366Z "/></symbol><symbol id="g32ED68715C9347C44E83F82ADB4E9744" overflow="visible"><path d="M 0 0m 4.02 6.288q 0.516 -0.18 0.984 -0.54l -0.468 -0.696q -0.432 0.276 -0.822 0.408q -0.39 0.132 -0.822 0.132q -0.54 0 -0.852 -0.222q -0.312 -0.222 -0.312 -0.606q 0 -0.384 0.294 -0.6q 0.294 -0.216 1.062 -0.42q 1.056 -0.264 1.578 -0.72q 0.522 -0.456 0.522 -1.248q 0 -0.936 -0.726 -1.428q -0.726 -0.492 -1.77 -0.492q -1.44 0 -2.388 0.828l 0.588 0.672q 0.804 -0.612 1.776 -0.612q 0.624 0 0.99 0.258q 0.366 0.258 0.366 0.702q 0 0.324 -0.132 0.522q -0.132 0.198 -0.456 0.348q -0.324 0.15 -0.948 0.318q -1.008 0.264 -1.458 0.708q -0.45 0.444 -0.45 1.128q 0 0.492 0.294 0.894q 0.294 0.402 0.816 0.624q 0.522 0.222 1.17 0.222q 0.648 0 1.164 -0.18Z "/></symbol><symbol id="gB716F6067CD8CAE465B14665D581569E" overflow="visible"><path d="M 0 0m 5.532 0.906q 0.132 -0.186 0.396 -0.282l -0.252 -0.768q -0.492 0.06 -0.792 0.276q -0.3 0.216 -0.444 0.672q -0.636 -0.948 -1.884 -0.948q -0.936 0 -1.476 0.528q -0.54 0.528 -0.54 1.38q 0 1.008 0.726 1.548q 0.726 0.54 2.058 0.54h 0.972v 0.468q 0 0.672 -0.324 0.96q -0.324 0.288 -0.996 0.288q -0.696 0 -1.704 -0.336l -0.276 0.804q 1.176 0.432 2.184 0.432q 1.116 0 1.668 -0.546q 0.552 -0.546 0.552 -1.554v -2.892q 0 -0.384 0.132 -0.57Z m -1.236 0.762v 1.452h -0.828q -1.752 0 -1.752 -1.296q 0 -0.564 0.276 -0.852q 0.276 -0.288 0.816 -0.288q 0.948 0 1.488 0.984Z "/></symbol><symbol id="g67918CAC88C1B8E76DB927EAAD82197F" overflow="visible"><path d="M 0 0m 5.892 2.784h -4.032q 0.072 -1.044 0.528 -1.536q 0.456 -0.492 1.176 -0.492q 0.456 0 0.84 0.132q 0.384 0.132 0.804 0.42l 0.48 -0.66q -1.008 -0.792 -2.208 -0.792q -1.32 0 -2.058 0.864q -0.738 0.864 -0.738 2.376q 0 0.984 0.318 1.746q 0.318 0.762 0.912 1.194q 0.594 0.432 1.398 0.432q 1.26 0 1.932 -0.828q 0.672 -0.828 0.672 -2.292q 0 -0.276 -0.024 -0.564Z m -1.068 0.888q 0 0.936 -0.372 1.428q -0.372 0.492 -1.116 0.492q -1.356 0 -1.476 -1.992h 2.964v 0.072Z "/></symbol><symbol id="gD7A554F2AB2E300F5518601A73D7F043" overflow="visible"><path d="M 0 0m 5.844 0h -0.948l -0.084 0.984q -0.36 -0.588 -0.828 -0.858q -0.468 -0.27 -1.14 -0.27q -0.828 0 -1.296 0.504q -0.468 0.504 -0.468 1.428v 4.536h 1.104v -4.416q 0 -0.648 0.228 -0.918q 0.228 -0.27 0.744 -0.27q 0.924 0 1.584 1.092v 4.512h 1.104v -6.324Z "/></symbol><symbol id="gE0DF7B6C9AF1EF8D2030DA1F5FB9DF0F" overflow="visible"><path d="M 0 0m 4.512 6.396l -0.204 -1.08q -0.288 0.072 -0.552 0.072q -0.588 0 -0.948 -0.432q -0.36 -0.432 -0.564 -1.344v -3.612h -1.104v 6.324h 0.948l 0.108 -1.284q 0.252 0.708 0.684 1.068q 0.432 0.36 1.008 0.36q 0.336 0 0.624 -0.072Z "/></symbol><symbol id="g8FD05081B3CABB6E5249CF2FAAFDC373" overflow="visible"><path d="M 0 0m 5.934 7.398q 1.134 -0.87 1.134 -3.222q 0 -2.292 -1.134 -3.234q -1.134 -0.942 -2.754 -0.942h -1.98v 8.268h 1.728q 1.872 0 3.006 -0.87Z m -3.594 -0.042v -6.456h 0.924q 1.152 0 1.872 0.708q 0.72 0.708 0.72 2.568q 0 1.308 -0.372 2.01q -0.372 0.702 -0.948 0.936q -0.576 0.234 -1.356 0.234h -0.84Z "/></symbol><symbol id="gC4987FEECF13C11223876F75A28C5D42" overflow="visible"><path d="M 0 0m 5.586 5.58q 0.738 -0.888 0.738 -2.412q 0 -0.984 -0.336 -1.734q -0.336 -0.75 -0.972 -1.164q -0.636 -0.414 -1.512 -0.414q -1.332 0 -2.076 0.888q -0.744 0.888 -0.744 2.412q 0 0.984 0.336 1.734q 0.336 0.75 0.972 1.164q 0.636 0.414 1.524 0.414q 1.332 0 2.07 -0.888Z m -3.714 -2.424q 0 -2.412 1.632 -2.412q 1.632 0 1.632 2.424q 0 2.412 -1.62 2.412q -1.644 0 -1.644 -2.424Z "/></symbol><symbol id="gA355E8916D62A1368E36578CCDF80849" overflow="visible"><path d="M 0 0m 4.476 6.306q 0.468 -0.162 0.9 -0.522l -0.528 -0.696q -0.336 0.24 -0.654 0.354q -0.318 0.114 -0.702 0.114q -0.768 0 -1.194 -0.612q -0.426 -0.612 -0.426 -1.812q 0 -1.2 0.42 -1.77q 0.42 -0.57 1.2 -0.57q 0.372 0 0.684 0.114q 0.312 0.114 0.696 0.366l 0.504 -0.72q -0.864 -0.696 -1.932 -0.696q -1.284 0 -2.022 0.864q -0.738 0.864 -0.738 2.388q 0 1.008 0.336 1.764q 0.336 0.756 0.954 1.176q 0.618 0.42 1.47 0.42q 0.564 0 1.032 -0.162Z "/></symbol><symbol id="gF46503E6259416FE4973ACBFF020BD8B" overflow="visible"><path d="M 0 0m 5.466 5.952q 0.486 -0.516 0.486 -1.416v -4.536h -1.104v 4.38q 0 0.672 -0.252 0.948q -0.252 0.276 -0.744 0.276q -0.504 0 -0.888 -0.288q -0.384 -0.288 -0.72 -0.828v -4.488h -1.104v 6.324h 0.948l 0.096 -0.936q 0.336 0.504 0.834 0.792q 0.498 0.288 1.098 0.288q 0.864 0 1.35 -0.516Z "/></symbol><symbol id="gEC132CDE5654ED4E1AA021C93F878C25" overflow="visible"><path d="M 0 0m 5.724 7.344l -4.092 -6.372h 4.092l -0.132 -0.972h -5.232v 0.912l 4.128 6.396h -3.696v 0.96h 4.932v -0.924Z "/></symbol><symbol id="gDC84C26D9E7528E799FFEF8C5372A0D3" overflow="visible"><path d="M 0 0m 6.036 8.868v -8.868h -0.972l -0.108 0.876q -0.312 -0.48 -0.78 -0.75q -0.468 -0.27 -1.044 -0.27q -1.128 0 -1.758 0.888q -0.63 0.888 -0.63 2.388q 0 0.972 0.3 1.728q 0.3 0.756 0.864 1.182q 0.564 0.426 1.32 0.426q 0.972 0 1.704 -0.78v 3.312l 1.104 -0.132Z m -1.8 -7.902q 0.36 0.234 0.696 0.702v 3.096q -0.312 0.408 -0.666 0.618q -0.354 0.21 -0.798 0.21q -0.732 0 -1.134 -0.612q -0.402 -0.612 -0.402 -1.824q 0 -1.224 0.372 -1.824q 0.372 -0.6 1.068 -0.6q 0.504 0 0.864 0.234Z "/></symbol><symbol id="gF968224974618950FD6DA419529C7430" overflow="visible"><path d="M 0 0m 0.72 8.268h 1.188l -0.18 -3.144h -0.828l -0.18 3.144Z "/></symbol><symbol id="g67C46C6A9300F1CE09935C1628171314" overflow="visible"><path d="M 0 0m 5.892 2.784h -4.032q 0.072 -1.044 0.528 -1.536q 0.456 -0.492 1.176 -0.492q 0.456 0 0.84 0.132q 0.384 0.132 0.804 0.42l 0.48 -0.66q -1.008 -0.792 -2.208 -0.792q -1.32 0 -2.058 0.864q -0.738 0.864 -0.738 2.376q 0 0.984 0.318 1.746q 0.318 0.762 0.912 1.194q 0.594 0.432 1.398 0.432q 1.26 0 1.932 -0.828q 0.672 -0.828 0.672 -2.292q 0 -0.276 -0.024 -0.564Z m -1.068 0.888q 0 0.936 -0.372 1.428q -0.372 0.492 -1.116 0.492q -1.356 0 -1.476 -1.992h 2.964v 0.072Z m -0.036 5.016l -2.544 -1.032l -0.336 0.588l 2.388 1.368l 0.492 -0.924Z "/></symbol><symbol id="gD183623B31FA196EA3A2C4DE249E79A" overflow="visible"><path d="M 0 0m 5.82 5.604q 0.564 -0.864 0.564 -2.436q 0 -1.488 -0.648 -2.4q -0.648 -0.912 -1.836 -0.912q -1.056 0 -1.656 0.72v -3l -1.104 -0.132v 8.88h 0.948l 0.084 -0.852q 0.348 0.48 0.84 0.738q 0.492 0.258 1.032 0.258q 1.212 0 1.776 -0.864Z m -0.624 -2.436q 0 2.424 -1.428 2.424q -0.468 0 -0.852 -0.276q -0.384 -0.276 -0.672 -0.708v -3.084q 0.24 -0.372 0.6 -0.57q 0.36 -0.198 0.792 -0.198q 1.56 0 1.56 2.412Z "/></symbol></defs></svg>