<svg viewBox="0 0 753.007874016 224.907" width="753.007874016pt" height="224.907pt" xmlns="http://www.w3.org/2000/svg" xmlns:xlink="http://www.w3.org/1999/xlink" xmlns:h5="http://www.w3.org/1999/xhtml"><path fill="#ffffff" fill-rule="nonzero" d="M 0 0v 224.907h 753.007874016v -224.907Z "/><g transform="translate(8 8)"><path fill="#e6e6e6" fill-rule="nonzero" d="M 0 0v 100.2535h 737.007874016v -100.2535Z "/><g transform="matrix(1 0 0 -1 12 15.365)"><use xlink:href="#gD7372474AF3032094D73C9FB31817BE9" x="0" y="0" fill="#6b7683" fill-rule="nonzero"/><use xlink:href="#g9E67D82A734B735F6DB758A17B86AEA0" x="9.72" y="0" fill="#6b7683" fill-rule="nonzero"/><use xlink:href="#gA1569972B9B1286F358E34144526E271" x="13.95" y="0" fill="#6b7683" fill-rule="nonzero"/><use xlink:href="#g1DFCE3AD272BC9C0281405256D65B61A" x="21.09" y="0" fill="#6b7683" fill-rule="nonzero"/><use xlink:href="#g41A44CB2BBD02F9C7E7D0F7D0580D522" x="26.715" y="0" fill="#6b7683" fill-rule="nonzero"/><use xlink:href="#g9E67D82A734B735F6DB758A17B86AEA0" x="32.625" y="0" fill="#6b7683" fill-rule="nonzero"/><use xlink:href="#g47F8C0DA700836F3E180BA38D8C0404" x="36.855" y="0" fill="#6b7683" fill-rule="nonzero"/><use xlink:href="#g2A3DEC258FBEEE7E6DEBD7495106C517" x="45.795" y="0" fill="#6b7683" fill-rule="nonzero"/><use xlink:href="#g1DFCE3AD272BC9C0281405256D65B61A" x="54.45" y="0" fill="#6b7683" fill-rule="nonzero"/><use xlink:href="#g9E67D82A734B735F6DB758A17B86AEA0" x="60.075" y="0" fill="#6b7683" fill-rule="nonzero"/><use xlink:href="#gBF4044AA781AFCE2F01DEB31D8799BC6" x="64.305" y="0" fill="#6b7683" fill-rule="nonzero"/><use xlink:href="#g3FC8FC01464E9C45C73B69D92287A1D7" x="73.065" y="0" fill="#6b7683" fill-rule="nonzero"/></g><g transform="translate(12 45.815)"><path fill="#ffffff" fill-rule="nonzero" stroke="#979fa5" stroke-width="1" stroke-linecap="butt" stroke-linejoin="miter" stroke-miterlimit="4" d="M 0 0v 49.4385h 220.335958005v -49.4385Z "/><g transform="matrix(1 0 0 -1 60.810479003 15.365)"><use xlink:href="#g994AC41E0F0BFC637D782C4E1D128283" x="0" y="0" fill="#182936" fill-rule="nonzero"/><use xlink:href="#g350F5928E989DB791F1D035F1FC17CD2" x="4.275" y="0" fill="#182936" fill-rule="nonzero"/><use xlink:href="#gBF2F677CC0C3E1ACA378AB29A5D49662" x="16.305" y="0" fill="#182936" fill-rule="nonzero"/><use xlink:href="#gBF4044AA781AFCE2F01DEB31D8799BC6" x="23.325" y="0" fill="#182936" fill-rule="nonzero"/><use xlink:href="#g9699FD8834BE3742FF4D3B7CF7CA04" x="32.085" y="0" fill="#182936" fill-rule="nonzero"/><use xlink:href="#g350F5928E989DB791F1D035F1FC17CD2" x="41.07" y="0" fill="#182936" fill-rule="nonzero"/><use xlink:href="#gA1569972B9B1286F358E34144526E271" x="53.1" y="0" fill="#182936" fill-rule="nonzero"/><use xlink:href="#gBF4044AA781AFCE2F01DEB31D8799BC6" x="60.24" y="0" fill="#182936" fill-rule="nonzero"/><use xlink:href="#g2A3DEC258FBEEE7E6DEBD7495106C517" x="69" y="0" fill="#182936" fill-rule="nonzero"/><use xlink:href="#g41A44CB2BBD02F9C7E7D0F7D0580D522" x="77.655" y="0" fill="#182936" fill-rule="nonzero"/><use xlink:href="#gBF2F677CC0C3E1ACA378AB29A5D49662" x="83.415" y="0" fill="#182936" fill-rule="nonzero"/><use xlink:href="#g350F5928E989DB791F1D035F1FC17CD2" x="90.435" y="0" fill="#182936" fill-rule="nonzero"/></g><g transform="matrix(1 0 0 -1 74.753729003 44.4385)"><use xlink:href="#gB6E5001B7EF60FC085B9F3D5110E7E78" x="0" y="0" fill="#6b7683" fill-rule="nonzero"/><use xlink:href="#g30E375600A7F9C43D4CF978A090046A7" x="5.382" y="0" fill="#6b7683" fill-rule="nonzero"/><use xlink:href="#gCB036031B141192A7146BCC86ACB855F" x="14.7545" y="0" fill="#6b7683" fill-rule="nonzero"/><use xlink:href="#gA1DF2340B4D3F73DF621872576056520" x="21.574" y="0" fill="#6b7683" fill-rule="nonzero"/><use xlink:href="#gE132BC4ADBC52AAF70D880B9BF98CFCE" x="28.267" y="0" fill="#6b7683" fill-rule="nonzero"/><use xlink:href="#gCAB37AC132B06FC5298FE78B4B3C7D98" x="30.6705" y="0" fill="#6b7683" fill-rule="nonzero"/><use xlink:href="#gFB4A0A7E8E7DDC191C1E78FEBE04F775" x="37.3865" y="0" fill="#6b7683" fill-rule="nonzero"/><use xlink:href="#g523BDE48A8893DDEAB926A2D1E0A08B6" x="47.173" y="0" fill="#6b7683" fill-rule="nonzero"/><use xlink:href="#gB6E5001B7EF60FC085B9F3D5110E7E78" x="53.498" y="0" fill="#6b7683" fill-rule="nonzero"/><use xlink:href="#g800DE94BD1E5A1246C3143A032257512" x="58.995" y="0" fill="#6b7683" fill-rule="nonzero"/><use xlink:href="#g9875088190C63355EC2CF6578F1568BF" x="63.434" y="0" fill="#6b7683" fill-rule="nonzero"/><use xlink:href="#g6A896A0CAE39C19B348A4BCCB7414759" x="66.677" y="0" fill="#6b7683" fill-rule="nonzero"/></g></g><g transform="matrix(1 0 0 -1 233.635958005 79.49125)"><use xlink:href="#gA28C8647CF78F15FDA07D303F3128ACD" x="0" y="0" fill="#182936" fill-rule="nonzero"/></g><g transform="translate(258.335958005 45.815)"><path fill="#ffffff" fill-rule="nonzero" stroke="#979fa5" stroke-width="1" stroke-linecap="butt" stroke-linejoin="miter" stroke-miterlimit="4" d="M 0 0v 49.4385h 220.335958005v -49.4385Z "/><g transform="matrix(1 0 0 -1 63.165479003 15.365)"><use xlink:href="#g350F5928E989DB791F1D035F1FC17CD2" x="0" y="0" fill="#182936" fill-rule="nonzero"/><use xlink:href="#g44CBF918C9463109B2374E115EE64607" x="8.28" y="0" fill="#182936" fill-rule="nonzero"/><use xlink:href="#gA4ECC64C1614396DE75E936B23046F1A" x="21.03" y="0" fill="#182936" fill-rule="nonzero"/><use xlink:href="#g1F3A61A4A8785A37A6C0ED5606730C7E" x="29.97" y="0" fill="#182936" fill-rule="nonzero"/><use xlink:href="#gBC643BCE48F99E9C12ED6DDBD6E9F54E" x="38.16" y="0" fill="#182936" fill-rule="nonzero"/><use xlink:href="#g2A3DEC258FBEEE7E6DEBD7495106C517" x="47.07" y="0" fill="#182936" fill-rule="nonzero"/><use xlink:href="#g350F5928E989DB791F1D035F1FC17CD2" x="55.725" y="0" fill="#182936" fill-rule="nonzero"/><use xlink:href="#g1DFCE3AD272BC9C0281405256D65B61A" x="64.005" y="0" fill="#182936" fill-rule="nonzero"/><use xlink:href="#g1F3A61A4A8785A37A6C0ED5606730C7E" x="69.63" y="0" fill="#182936" fill-rule="nonzero"/><use xlink:href="#g8622C79056DF686E291BF3045C8E5824" x="77.82" y="0" fill="#182936" fill-rule="nonzero"/><use xlink:href="#g350F5928E989DB791F1D035F1FC17CD2" x="85.725" y="0" fill="#182936" fill-rule="nonzero"/></g><g transform="matrix(1 0 0 -1 83.861729003 44.4385)"><use xlink:href="#gEA09FB0037DEC5B1A835A5519352FD6A" x="0" y="0" fill="#6b7683" fill-rule="nonzero"/><use xlink:href="#g9C837F7DEAD32D52D0C8962208E2875D" x="6.831" y="0" fill="#6b7683" fill-rule="nonzero"/><use xlink:href="#gB6E5001B7EF60FC085B9F3D5110E7E78" x="13.087" y="0" fill="#6b7683" fill-rule="nonzero"/><use xlink:href="#gDED67C71F297A5BE5899AD74012C3D09" x="18.584" y="0" fill="#6b7683" fill-rule="nonzero"/><use xlink:href="#g9C837F7DEAD32D52D0C8962208E2875D" x="24.4145" y="0" fill="#6b7683" fill-rule="nonzero"/><use xlink:href="#g58A4C21A830C18DF9CAF4C65EB6C0297" x="30.6705" y="0" fill="#6b7683" fill-rule="nonzero"/><use xlink:href="#g9875088190C63355EC2CF6578F1568BF" x="36.6505" y="0" fill="#6b7683" fill-rule="nonzero"/><use xlink:href="#gFB4A0A7E8E7DDC191C1E78FEBE04F775" x="39.8935" y="0" fill="#6b7683" fill-rule="nonzero"/><use xlink:href="#g58A4C21A830C18DF9CAF4C65EB6C0297" x="46.6325" y="0" fill="#6b7683" fill-rule="nonzero"/></g></g><g transform="matrix(1 0 0 -1 479.97191601 79.49125)"><use xlink:href="#gA28C8647CF78F15FDA07D303F3128ACD" x="0" y="0" fill="#182936" fill-rule="nonzero"/></g><g transform="translate(504.67191601 45.815)"><path fill="#ffffff" fill-rule="nonzero" stroke="#979fa5" stroke-width="1" stroke-linecap="butt" stroke-linejoin="miter" stroke-miterlimit="4" d="M 0 0v 49.4385h 220.335958005v -49.4385Z "/><g transform="matrix(1 0 0 -1 56.760479003 15.365)"><use xlink:href="#g2A3DEC258FBEEE7E6DEBD7495106C517" x="0" y="0" fill="#182936" fill-rule="nonzero"/><use xlink:href="#g3FC8FC01464E9C45C73B69D92287A1D7" x="8.655" y="0" fill="#182936" fill-rule="nonzero"/><use xlink:href="#g350F5928E989DB791F1D035F1FC17CD2" x="17.37" y="0" fill="#182936" fill-rule="nonzero"/><use xlink:href="#g1F3A61A4A8785A37A6C0ED5606730C7E" x="29.4" y="0" fill="#182936" fill-rule="nonzero"/><use xlink:href="#gA4ECC64C1614396DE75E936B23046F1A" x="37.59" y="0" fill="#182936" fill-rule="nonzero"/><use xlink:href="#gA4ECC64C1614396DE75E936B23046F1A" x="46.53" y="0" fill="#182936" fill-rule="nonzero"/><use xlink:href="#g994AC41E0F0BFC637D782C4E1D128283" x="55.47" y="0" fill="#182936" fill-rule="nonzero"/><use xlink:href="#g9E67D82A734B735F6DB758A17B86AEA0" x="59.895" y="0" fill="#182936" fill-rule="nonzero"/><use xlink:href="#gBF2F677CC0C3E1ACA378AB29A5D49662" x="64.125" y="0" fill="#182936" fill-rule="nonzero"/><use xlink:href="#g1F3A61A4A8785A37A6C0ED5606730C7E" x="71.295" y="0" fill="#182936" fill-rule="nonzero"/><use xlink:href="#g1DFCE3AD272BC9C0281405256D65B61A" x="79.485" y="0" fill="#182936" fill-rule="nonzero"/><use xlink:href="#g9E67D82A734B735F6DB758A17B86AEA0" x="85.11" y="0" fill="#182936" fill-rule="nonzero"/><use xlink:href="#gBF4044AA781AFCE2F01DEB31D8799BC6" x="89.34" y="0" fill="#182936" fill-rule="nonzero"/><use xlink:href="#g3FC8FC01464E9C45C73B69D92287A1D7" x="98.1" y="0" fill="#182936" fill-rule="nonzero"/></g><g transform="matrix(1 0 0 -1 76.392479003 44.4385)"><use xlink:href="#gCB036031B141192A7146BCC86ACB855F" x="0" y="0" fill="#6b7683" fill-rule="nonzero"/><use xlink:href="#gA1DF2340B4D3F73DF621872576056520" x="6.8195" y="0" fill="#6b7683" fill-rule="nonzero"/><use xlink:href="#g9875088190C63355EC2CF6578F1568BF" x="13.5125" y="0" fill="#6b7683" fill-rule="nonzero"/><use xlink:href="#g477846B4DA5AA46721B3645607D639B9" x="19.803" y="0" fill="#6b7683" fill-rule="nonzero"/><use xlink:href="#gE132BC4ADBC52AAF70D880B9BF98CFCE" x="25.1735" y="0" fill="#6b7683" fill-rule="nonzero"/><use xlink:href="#g9875088190C63355EC2CF6578F1568BF" x="28.842" y="0" fill="#6b7683" fill-rule="nonzero"/><use xlink:href="#gFB4A0A7E8E7DDC191C1E78FEBE04F775" x="32.085" y="0" fill="#6b7683" fill-rule="nonzero"/><use xlink:href="#g477846B4DA5AA46721B3645607D639B9" x="38.824" y="0" fill="#6b7683" fill-rule="nonzero"/><use xlink:href="#g6A896A0CAE39C19B348A4BCCB7414759" x="44.1945" y="0" fill="#6b7683" fill-rule="nonzero"/><use xlink:href="#g9C837F7DEAD32D52D0C8962208E2875D" x="48.346" y="0" fill="#6b7683" fill-rule="nonzero"/><use xlink:href="#g9DD3254E1BEF65F2BD5B27EA79188ED3" x="54.602" y="0" fill="#6b7683" fill-rule="nonzero"/><use xlink:href="#g9DD3254E1BEF65F2BD5B27EA79188ED3" x="57.9715" y="0" fill="#6b7683" fill-rule="nonzero"/><use xlink:href="#g30E375600A7F9C43D4CF978A090046A7" x="61.226" y="0" fill="#6b7683" fill-rule="nonzero"/></g></g></g><g transform="translate(8 116.6535)"><path fill="#edeeef" fill-rule="nonzero" d="M 0 0v 100.2535h 737.007874016v -100.2535Z "/><g transform="matrix(1 0 0 -1 12 15.365)"><use xlink:href="#gD7372474AF3032094D73C9FB31817BE9" x="0" y="0" fill="#182936" fill-rule="nonzero"/><use xlink:href="#g43D339D1BFDFDBBADDD34128D2D4FC19" x="9.72" y="0" fill="#182936" fill-rule="nonzero"/><use xlink:href="#gA4ECC64C1614396DE75E936B23046F1A" x="18" y="0" fill="#182936" fill-rule="nonzero"/><use xlink:href="#g994AC41E0F0BFC637D782C4E1D128283" x="26.94" y="0" fill="#182936" fill-rule="nonzero"/><use xlink:href="#gBF4044AA781AFCE2F01DEB31D8799BC6" x="31.215" y="0" fill="#182936" fill-rule="nonzero"/><use xlink:href="#g9E67D82A734B735F6DB758A17B86AEA0" x="39.975" y="0" fill="#182936" fill-rule="nonzero"/><use xlink:href="#g350F5928E989DB791F1D035F1FC17CD2" x="44.205" y="0" fill="#182936" fill-rule="nonzero"/><use xlink:href="#g44CBF918C9463109B2374E115EE64607" x="52.485" y="0" fill="#182936" fill-rule="nonzero"/><use xlink:href="#g350F5928E989DB791F1D035F1FC17CD2" x="65.235" y="0" fill="#182936" fill-rule="nonzero"/><use xlink:href="#g3FC8FC01464E9C45C73B69D92287A1D7" x="73.515" y="0" fill="#182936" fill-rule="nonzero"/><use xlink:href="#g1DFCE3AD272BC9C0281405256D65B61A" x="82.23" y="0" fill="#182936" fill-rule="nonzero"/></g><g transform="translate(12 45.815)"><path fill="#ffffff" fill-rule="nonzero" stroke="#979fa5" stroke-width="1" stroke-linecap="butt" stroke-linejoin="miter" stroke-miterlimit="4" d="M 0 0v 49.4385h 220.335958005v -49.4385Z "/><g transform="matrix(1 0 0 -1 60.810479003 15.365)"><use xlink:href="#g994AC41E0F0BFC637D782C4E1D128283" x="0" y="0" fill="#182936" fill-rule="nonzero"/><use xlink:href="#g350F5928E989DB791F1D035F1FC17CD2" x="4.275" y="0" fill="#182936" fill-rule="nonzero"/><use xlink:href="#gBF2F677CC0C3E1ACA378AB29A5D49662" x="16.305" y="0" fill="#182936" fill-rule="nonzero"/><use xlink:href="#gBF4044AA781AFCE2F01DEB31D8799BC6" x="23.325" y="0" fill="#182936" fill-rule="nonzero"/><use xlink:href="#g9699FD8834BE3742FF4D3B7CF7CA04" x="32.085" y="0" fill="#182936" fill-rule="nonzero"/><use xlink:href="#g350F5928E989DB791F1D035F1FC17CD2" x="41.07" y="0" fill="#182936" fill-rule="nonzero"/><use xlink:href="#gA1569972B9B1286F358E34144526E271" x="53.1" y="0" fill="#182936" fill-rule="nonzero"/><use xlink:href="#gBF4044AA781AFCE2F01DEB31D8799BC6" x="60.24" y="0" fill="#182936" fill-rule="nonzero"/><use xlink:href="#g2A3DEC258FBEEE7E6DEBD7495106C517" x="69" y="0" fill="#182936" fill-rule="nonzero"/><use xlink:href="#g41A44CB2BBD02F9C7E7D0F7D0580D522" x="77.655" y="0" fill="#182936" fill-rule="nonzero"/><use xlink:href="#gBF2F677CC0C3E1ACA378AB29A5D49662" x="83.415" y="0" fill="#182936" fill-rule="nonzero"/><use xlink:href="#g350F5928E989DB791F1D035F1FC17CD2" x="90.435" y="0" fill="#182936" fill-rule="nonzero"/></g><g transform="matrix(1 0 0 -1 74.753729003 44.4385)"><use xlink:href="#gB6E5001B7EF60FC085B9F3D5110E7E78" x="0" y="0" fill="#6b7683" fill-rule="nonzero"/><use xlink:href="#g30E375600A7F9C43D4CF978A090046A7" x="5.382" y="0" fill="#6b7683" fill-rule="nonzero"/><use xlink:href="#gCB036031B141192A7146BCC86ACB855F" x="14.7545" y="0" fill="#6b7683" fill-rule="nonzero"/><use xlink:href="#gA1DF2340B4D3F73DF621872576056520" x="21.574" y="0" fill="#6b7683" fill-rule="nonzero"/><use xlink:href="#gE132BC4ADBC52AAF70D880B9BF98CFCE" x="28.267" y="0" fill="#6b7683" fill-rule="nonzero"/><use xlink:href="#gCAB37AC132B06FC5298FE78B4B3C7D98" x="30.6705" y="0" fill="#6b7683" fill-rule="nonzero"/><use xlink:href="#gFB4A0A7E8E7DDC191C1E78FEBE04F775" x="37.3865" y="0" fill="#6b7683" fill-rule="nonzero"/><use xlink:href="#g523BDE48A8893DDEAB926A2D1E0A08B6" x="47.173" y="0" fill="#6b7683" fill-rule="nonzero"/><use xlink:href="#gB6E5001B7EF60FC085B9F3D5110E7E78" x="53.498" y="0" fill="#6b7683" fill-rule="nonzero"/><use xlink:href="#g800DE94BD1E5A1246C3143A032257512" x="58.995" y="0" fill="#6b7683" fill-rule="nonzero"/><use xlink:href="#g9875088190C63355EC2CF6578F1568BF" x="63.434" y="0" fill="#6b7683" fill-rule="nonzero"/><use xlink:href="#g6A896A0CAE39C19B348A4BCCB7414759" x="66.677" y="0" fill="#6b7683" fill-rule="nonzero"/></g></g><g transform="matrix(1 0 0 -1 233.635958005 79.49125)"><use xlink:href="#gA28C8647CF78F15FDA07D303F3128ACD" x="0" y="0" fill="#182936" fill-rule="nonzero"/></g><g transform="translate(258.335958005 45.815)"><path fill="#ffffff" fill-rule="nonzero" stroke="#979fa5" stroke-width="1" stroke-linecap="butt" stroke-linejoin="miter" stroke-miterlimit="4" d="M 0 0v 49.4385h 220.335958005v -49.4385Z "/><g transform="matrix(1 0 0 -1 64.867979003 15.365)"><use xlink:href="#g44CBF918C9463109B2374E115EE64607" x="0" y="0" fill="#182936" fill-rule="nonzero"/><use xlink:href="#g9E67D82A734B735F6DB758A17B86AEA0" x="12.75" y="0" fill="#182936" fill-rule="nonzero"/><use xlink:href="#gA1569972B9B1286F358E34144526E271" x="16.98" y="0" fill="#182936" fill-rule="nonzero"/><use xlink:href="#g350F5928E989DB791F1D035F1FC17CD2" x="24.12" y="0" fill="#182936" fill-rule="nonzero"/><use xlink:href="#g350F5928E989DB791F1D035F1FC17CD2" x="36.15" y="0" fill="#182936" fill-rule="nonzero"/><use xlink:href="#g3FC8FC01464E9C45C73B69D92287A1D7" x="44.43" y="0" fill="#182936" fill-rule="nonzero"/><use xlink:href="#g994AC41E0F0BFC637D782C4E1D128283" x="56.895" y="0" fill="#182936" fill-rule="nonzero"/><use xlink:href="#g9E67D82A734B735F6DB758A17B86AEA0" x="61.32" y="0" fill="#182936" fill-rule="nonzero"/><use xlink:href="#g8622C79056DF686E291BF3045C8E5824" x="65.55" y="0" fill="#182936" fill-rule="nonzero"/><use xlink:href="#g3FC8FC01464E9C45C73B69D92287A1D7" x="73.605" y="0" fill="#182936" fill-rule="nonzero"/><use xlink:href="#g350F5928E989DB791F1D035F1FC17CD2" x="82.32" y="0" fill="#182936" fill-rule="nonzero"/></g><g transform="matrix(1 0 0 -1 76.846729003 44.4385)"><use xlink:href="#gFBBFFB1D6E773F4D1062D719DD3932BE" x="0" y="0" fill="#6b7683" fill-rule="nonzero"/><use xlink:href="#g523BDE48A8893DDEAB926A2D1E0A08B6" x="6.877" y="0" fill="#6b7683" fill-rule="nonzero"/><use xlink:href="#gEA09FB0037DEC5B1A835A5519352FD6A" x="13.202" y="0" fill="#6b7683" fill-rule="nonzero"/><use xlink:href="#g9DD3254E1BEF65F2BD5B27EA79188ED3" x="20.033" y="0" fill="#6b7683" fill-rule="nonzero"/><use xlink:href="#gCAB37AC132B06FC5298FE78B4B3C7D98" x="23.2875" y="0" fill="#6b7683" fill-rule="nonzero"/><use xlink:href="#g9875088190C63355EC2CF6578F1568BF" x="30.0035" y="0" fill="#6b7683" fill-rule="nonzero"/><use xlink:href="#g30E375600A7F9C43D4CF978A090046A7" x="33.2465" y="0" fill="#6b7683" fill-rule="nonzero"/><use xlink:href="#g4B0F22FCEC745417016D6FA03EC5429E" x="39.5715" y="0" fill="#6b7683" fill-rule="nonzero"/><use xlink:href="#g30E375600A7F9C43D4CF978A090046A7" x="49.427" y="0" fill="#6b7683" fill-rule="nonzero"/><use xlink:href="#gFB4A0A7E8E7DDC191C1E78FEBE04F775" x="55.752" y="0" fill="#6b7683" fill-rule="nonzero"/><use xlink:href="#g6A896A0CAE39C19B348A4BCCB7414759" x="62.491" y="0" fill="#6b7683" fill-rule="nonzero"/></g></g><g transform="matrix(1 0 0 -1 479.97191601 79.49125)"><use xlink:href="#gA28C8647CF78F15FDA07D303F3128ACD" x="0" y="0" fill="#182936" fill-rule="nonzero"/></g><g transform="translate(504.67191601 45.815)"><path fill="#ffffff" fill-rule="nonzero" stroke="#979fa5" stroke-width="1" stroke-linecap="butt" stroke-linejoin="miter" stroke-miterlimit="4" d="M 0 0v 49.4385h 220.335958005v -49.4385Z "/><g transform="matrix(1 0 0 -1 40.845479003 15.365)"><use xlink:href="#g2A3DEC258FBEEE7E6DEBD7495106C517" x="0" y="0" fill="#182936" fill-rule="nonzero"/><use xlink:href="#g3FC8FC01464E9C45C73B69D92287A1D7" x="8.655" y="0" fill="#182936" fill-rule="nonzero"/><use xlink:href="#g350F5928E989DB791F1D035F1FC17CD2" x="17.37" y="0" fill="#182936" fill-rule="nonzero"/><use xlink:href="#g1F3A61A4A8785A37A6C0ED5606730C7E" x="29.4" y="0" fill="#182936" fill-rule="nonzero"/><use xlink:href="#gA4ECC64C1614396DE75E936B23046F1A" x="37.59" y="0" fill="#182936" fill-rule="nonzero"/><use xlink:href="#gA4ECC64C1614396DE75E936B23046F1A" x="46.53" y="0" fill="#182936" fill-rule="nonzero"/><use xlink:href="#g994AC41E0F0BFC637D782C4E1D128283" x="55.47" y="0" fill="#182936" fill-rule="nonzero"/><use xlink:href="#g9E67D82A734B735F6DB758A17B86AEA0" x="59.895" y="0" fill="#182936" fill-rule="nonzero"/><use xlink:href="#gBF2F677CC0C3E1ACA378AB29A5D49662" x="64.125" y="0" fill="#182936" fill-rule="nonzero"/><use xlink:href="#g1F3A61A4A8785A37A6C0ED5606730C7E" x="71.295" y="0" fill="#182936" fill-rule="nonzero"/><use xlink:href="#g1DFCE3AD272BC9C0281405256D65B61A" x="79.485" y="0" fill="#182936" fill-rule="nonzero"/><use xlink:href="#g9E67D82A734B735F6DB758A17B86AEA0" x="85.11" y="0" fill="#182936" fill-rule="nonzero"/><use xlink:href="#gBF4044AA781AFCE2F01DEB31D8799BC6" x="89.34" y="0" fill="#182936" fill-rule="nonzero"/><use xlink:href="#g3FC8FC01464E9C45C73B69D92287A1D7" x="98.1" y="0" fill="#182936" fill-rule="nonzero"/><use xlink:href="#gE073862D78100D715310FF8054A23D0A" x="110.565" y="0" fill="#182936" fill-rule="nonzero"/><use xlink:href="#g350F5928E989DB791F1D035F1FC17CD2" x="121.425" y="0" fill="#182936" fill-rule="nonzero"/><use xlink:href="#g47F8C0DA700836F3E180BA38D8C0404" x="129.705" y="0" fill="#182936" fill-rule="nonzero"/></g><g transform="matrix(1 0 0 -1 72.045479003 44.4385)"><use xlink:href="#g800DE94BD1E5A1246C3143A032257512" x="0" y="0" fill="#6b7683" fill-rule="nonzero"/><use xlink:href="#g9875088190C63355EC2CF6578F1568BF" x="4.439" y="0" fill="#6b7683" fill-rule="nonzero"/><use xlink:href="#g30E375600A7F9C43D4CF978A090046A7" x="7.682" y="0" fill="#6b7683" fill-rule="nonzero"/><use xlink:href="#gFB4A0A7E8E7DDC191C1E78FEBE04F775" x="14.007" y="0" fill="#6b7683" fill-rule="nonzero"/><use xlink:href="#g357F14B871B66E1041C66EBF5B6B73A2" x="23.7935" y="0" fill="#6b7683" fill-rule="nonzero"/><use xlink:href="#g9875088190C63355EC2CF6578F1568BF" x="33.097" y="0" fill="#6b7683" fill-rule="nonzero"/><use xlink:href="#gFB4A0A7E8E7DDC191C1E78FEBE04F775" x="36.34" y="0" fill="#6b7683" fill-rule="nonzero"/><use xlink:href="#g477846B4DA5AA46721B3645607D639B9" x="43.079" y="0" fill="#6b7683" fill-rule="nonzero"/><use xlink:href="#g6A896A0CAE39C19B348A4BCCB7414759" x="48.4495" y="0" fill="#6b7683" fill-rule="nonzero"/><use xlink:href="#g9C837F7DEAD32D52D0C8962208E2875D" x="52.601" y="0" fill="#6b7683" fill-rule="nonzero"/><use xlink:href="#g9DD3254E1BEF65F2BD5B27EA79188ED3" x="58.857" y="0" fill="#6b7683" fill-rule="nonzero"/><use xlink:href="#g9DD3254E1BEF65F2BD5B27EA79188ED3" x="62.2265" y="0" fill="#6b7683" fill-rule="nonzero"/><use xlink:href="#g30E375600A7F9C43D4CF978A090046A7" x="65.481" y="0" fill="#6b7683" fill-rule="nonzero"/><use xlink:href="#g800DE94BD1E5A1246C3143A032257512" x="71.806" y="0" fill="#6b7683" fill-rule="nonzero"/></g></g></g><defs><symbol id="gD7372474AF3032094D73C9FB31817BE9" overflow="visible"><path d="M 0 0m 7.6275 9.27q 1.4475 -1.095 1.4475 -4.035q 0 -2.88 -1.425 -4.0575q -1.425 -1.1775 -3.615 -1.1775h -2.82v 10.365h 2.55q 2.415 0 3.8625 -1.095Z m -4.4325 -0.39v -7.395h 0.975q 1.32 0 2.07 0.8175q 0.75 0.8175 0.75 2.9325q 0 1.47 -0.3825 2.2725q -0.3825 0.8025 -1.005 1.0875q -0.6225 0.285 -1.4925 0.285h -0.915Z "/></symbol><symbol id="g9E67D82A734B735F6DB758A17B86AEA0" overflow="visible"><path d="M 0 0m 3.075 0h -1.92v 7.935h 1.92v -7.935Z m -0.0975 11.6175q 0.3375 -0.3375 0.3375 -0.8325q 0 -0.495 -0.3375 -0.825q -0.3375 -0.33 -0.8775 -0.33q -0.525 0 -0.8625 0.33q -0.3375 0.33 -0.3375 0.825q 0 0.495 0.3375 0.8325q 0.3375 0.3375 0.8625 0.3375q 0.54 0 0.8775 -0.3375Z "/></symbol><symbol id="gA1569972B9B1286F358E34144526E271" overflow="visible"><path d="M 0 0m 6.48 7.215l -0.75 -1.125q -1.02 0.645 -1.995 0.645q -0.57 0 -0.885 -0.2175q -0.315 -0.2175 -0.315 -0.5775q 0 -0.27 0.135 -0.45q 0.135 -0.18 0.4875 -0.3375q 0.3525 -0.1575 1.0425 -0.3525q 1.29 -0.345 1.9125 -0.915q 0.6225 -0.57 0.6225 -1.59q 0 -1.185 -0.96 -1.8525q -0.96 -0.6675 -2.385 -0.6675q -0.975 0 -1.7775 0.3q -0.8025 0.3 -1.3875 0.825l 0.96 1.08q 1.035 -0.78 2.16 -0.78q 0.645 0 1.0275 0.255q 0.3825 0.255 0.3825 0.705q 0 0.345 -0.1425 0.5475q -0.1425 0.2025 -0.51 0.36q -0.3675 0.1575 -1.1475 0.3825q -1.215 0.33 -1.785 0.9225q -0.57 0.5925 -0.57 1.4775q 0 0.66 0.3825 1.185q 0.3825 0.525 1.08 0.825q 0.6975 0.3 1.5975 0.3q 1.605 0 2.82 -0.945Z "/></symbol><symbol id="g1DFCE3AD272BC9C0281405256D65B61A" overflow="visible"><path d="M 0 0m 5.7 0.375q -0.42 -0.3 -0.9375 -0.45q -0.5175 -0.15 -1.0575 -0.15q -1.17 0.015 -1.7775 0.6675q -0.6075 0.6525 -0.6075 1.9275v 4.185h -1.245v 1.38h 1.245v 1.755l 1.92 0.225v -1.98h 1.845l -0.195 -1.38h -1.65v -4.14q 0 -0.585 0.2025 -0.84q 0.2025 -0.255 0.6375 -0.255q 0.45 0 0.945 0.3l 0.675 -1.245Z "/></symbol><symbol id="g41A44CB2BBD02F9C7E7D0F7D0580D522" overflow="visible"><path d="M 0 0m 5.865 8.04l -0.33 -1.86q -0.36 0.09 -0.705 0.09q -0.705 0 -1.11 -0.5025q -0.405 -0.5025 -0.645 -1.5525v -4.215h -1.92v 7.935h 1.665l 0.18 -1.56q 0.285 0.855 0.825 1.3125q 0.54 0.4575 1.245 0.4575q 0.435 0 0.795 -0.105Z "/></symbol><symbol id="g47F8C0DA700836F3E180BA38D8C0404" overflow="visible"><path d="M 0 0m 7.425 7.065q 0.78 -1.095 0.78 -3.09q 0 -1.23 -0.3825 -2.1825q -0.3825 -0.9525 -1.0875 -1.485q -0.705 -0.5325 -1.665 -0.5325q -0.645 0 -1.1775 0.27q -0.5325 0.27 -0.9225 0.765l -0.12 -0.81h -1.695v 11.115l 1.92 0.21v -4.275q 0.39 0.525 0.945 0.8175q 0.555 0.2925 1.215 0.2925q 1.41 0 2.19 -1.095Z m -1.665 -5.1825q 0.435 0.6675 0.435 2.0925q 0 1.5 -0.405 2.1225q -0.405 0.6225 -1.14 0.6225q -0.915 0 -1.575 -1.08v -3.51q 0.285 -0.435 0.66 -0.675q 0.375 -0.24 0.825 -0.24q 0.765 0 1.2 0.6675Z "/></symbol><symbol id="g2A3DEC258FBEEE7E6DEBD7495106C517" overflow="visible"><path d="M 0 0m 7.5 0h -1.665l -0.105 1.11q -0.435 -0.675 -1.0275 -1.005q -0.5925 -0.33 -1.4025 -0.33q -1.065 0 -1.6425 0.6525q -0.5775 0.6525 -0.5775 1.8075v 5.7h 1.92v -5.46q 0 -0.675 0.2325 -0.96q 0.2325 -0.285 0.7425 -0.285q 0.915 0 1.605 1.125v 5.58h 1.92v -7.935Z "/></symbol><symbol id="gBF4044AA781AFCE2F01DEB31D8799BC6" overflow="visible"><path d="M 0 0m 7.1325 7.0425q 0.9825 -1.1175 0.9825 -3.0675q 0 -1.245 -0.45 -2.1975q -0.45 -0.9525 -1.29 -1.4775q -0.84 -0.525 -1.995 -0.525q -1.755 0 -2.745 1.1175q -0.99 1.1175 -0.99 3.0825q 0 1.245 0.45 2.19q 0.45 0.945 1.2975 1.47q 0.8475 0.525 2.0025 0.525q 1.755 0 2.7375 -1.1175Z m -4.4625 -3.0675q 0 -1.41 0.4275 -2.0775q 0.4275 -0.6675 1.2825 -0.6675q 0.855 0 1.2825 0.675q 0.4275 0.675 0.4275 2.07q 0 1.395 -0.4275 2.0625q -0.4275 0.6675 -1.2675 0.6675q -1.725 0 -1.725 -2.73Z "/></symbol><symbol id="g3FC8FC01464E9C45C73B69D92287A1D7" overflow="visible"><path d="M 0 0m 7.0425 7.5225q 0.5925 -0.6375 0.5925 -1.7775v -5.745h -1.92v 5.445q 0 0.705 -0.2475 0.99q -0.2475 0.285 -0.7275 0.285q -0.495 0 -0.8925 -0.3075q -0.3975 -0.3075 -0.7725 -0.8925v -5.52h -1.92v 7.935h 1.665l 0.15 -1.05q 0.99 1.275 2.415 1.275q 1.065 0 1.6575 -0.6375Z "/></symbol><symbol id="g994AC41E0F0BFC637D782C4E1D128283" overflow="visible"><path d="M 0 0m 1.5975 0.3075q -0.5175 0.5325 -0.5175 1.5075v 9.3l 1.92 0.21v -9.45q 0 -0.555 0.45 -0.555q 0.225 0 0.45 0.075l 0.405 -1.35q -0.6 -0.27 -1.275 -0.27q -0.915 0 -1.4325 0.5325Z "/></symbol><symbol id="g350F5928E989DB791F1D035F1FC17CD2" overflow="visible"><path d="M 0 0m 7.62 3.375h -4.98q 0.105 -1.155 0.6075 -1.65q 0.5025 -0.495 1.3425 -0.495q 0.525 0 0.99 0.1725q 0.465 0.1725 0.99 0.5325l 0.795 -1.095q -1.32 -1.065 -2.94 -1.065q -1.815 0 -2.7975 1.11q -0.9825 1.11 -0.9825 3.03q 0 1.215 0.42 2.1825q 0.42 0.9675 1.215 1.515q 0.795 0.5475 1.89 0.5475q 1.665 0 2.58 -1.0575q 0.915 -1.0575 0.915 -2.9475q 0 -0.15 -0.045 -0.78Z m -1.86 1.335q 0 2.085 -1.545 2.085q -0.705 0 -1.1025 -0.5175q -0.3975 -0.5175 -0.4725 -1.6575h 3.12v 0.09Z "/></symbol><symbol id="gBF2F677CC0C3E1ACA378AB29A5D49662" overflow="visible"><path d="M 0 0m 5.7525 7.935q 0.6225 -0.225 1.1775 -0.705l -0.855 -1.155q -0.405 0.3 -0.78 0.435q -0.375 0.135 -0.825 0.135q -1.785 0 -1.785 -2.715q 0 -1.38 0.465 -1.9875q 0.465 -0.6075 1.32 -0.6075q 0.42 0 0.7725 0.135q 0.3525 0.135 0.8325 0.435l 0.855 -1.215q -1.125 -0.915 -2.565 -0.915q -1.14 0 -1.98 0.5025q -0.84 0.5025 -1.29 1.4325q -0.45 0.93 -0.45 2.19q 0 1.26 0.45 2.2275q 0.45 0.9675 1.29 1.5q 0.84 0.5325 1.965 0.5325q 0.78 0 1.4025 -0.225Z "/></symbol><symbol id="g9699FD8834BE3742FF4D3B7CF7CA04" overflow="visible"><path d="M 0 0m 7.83 11.115v -11.115h -1.695l -0.135 1.005q -0.375 -0.57 -0.945 -0.9q -0.57 -0.33 -1.32 -0.33q -1.455 0 -2.235 1.125q -0.78 1.125 -0.78 3.06q 0 1.23 0.39 2.1825q 0.39 0.9525 1.1175 1.485q 0.7275 0.5325 1.7175 0.5325q 1.14 0 1.965 -0.855v 4.02l 1.92 -0.21Z m -2.655 -9.6375q 0.39 0.2475 0.735 0.7725v 3.63q -0.33 0.42 -0.69 0.63q -0.36 0.21 -0.81 0.21q -0.78 0 -1.2225 -0.6825q -0.4425 -0.6825 -0.4425 -2.0625q 0 -1.47 0.39 -2.1075q 0.39 -0.6375 1.14 -0.6375q 0.51 0 0.9 0.2475Z "/></symbol><symbol id="gB6E5001B7EF60FC085B9F3D5110E7E78" overflow="visible"><path d="M 0 0m 4.2895 6.04325q 0.4485 -0.15525 0.8625 -0.50025l -0.506 -0.667q -0.322 0.23 -0.62675 0.33925q -0.30475 0.10925 -0.67275 0.10925q -0.736 0 -1.14425 -0.5865q -0.40825 -0.5865 -0.40825 -1.7365q 0 -1.15 0.4025 -1.69625q 0.4025 -0.54625 1.15 -0.54625q 0.3565 0 0.6555 0.10925q 0.299 0.10925 0.667 0.35075l 0.483 -0.69q -0.828 -0.667 -1.8515 -0.667q -1.2305 0 -1.93775 0.828q -0.70725 0.828 -0.70725 2.2885q 0 0.966 0.322 1.6905q 0.322 0.7245 0.91425 1.127q 0.59225 0.4025 1.40875 0.4025q 0.5405 0 0.989 -0.15525Z "/></symbol><symbol id="g30E375600A7F9C43D4CF978A090046A7" overflow="visible"><path d="M 0 0m 5.6465 2.668h -3.864q 0.069 -1.0005 0.506 -1.472q 0.437 -0.4715 1.127 -0.4715q 0.437 0 0.805 0.1265q 0.368 0.1265 0.7705 0.4025l 0.46 -0.6325q -0.966 -0.759 -2.116 -0.759q -1.265 0 -1.97225 0.828q -0.70725 0.828 -0.70725 2.277q 0 0.943 0.30475 1.67325q 0.30475 0.73025 0.874 1.14425q 0.56925 0.414 1.33975 0.414q 1.2075 0 1.8515 -0.7935q 0.644 -0.7935 0.644 -2.1965q 0 -0.2645 -0.023 -0.5405Z m -1.0235 0.851q 0 0.897 -0.3565 1.3685q -0.3565 0.4715 -1.0695 0.4715q -1.2995 0 -1.4145 -1.909h 2.8405v 0.069Z "/></symbol><symbol id="gCB036031B141192A7146BCC86ACB855F" overflow="visible"><path d="M 0 0m 5.727 6.0605v -8.51l -1.058 0.1265v 3.128q -0.299 -0.4485 -0.74175 -0.69575q -0.44275 -0.24725 -0.98325 -0.24725q -1.081 0 -1.68475 0.851q -0.60375 0.851 -0.60375 2.2885q 0 0.9315 0.2875 1.656q 0.2875 0.7245 0.828 1.13275q 0.5405 0.40825 1.265 0.40825q 0.966 0 1.702 -0.8165l 0.0805 0.6785h 0.9085Z m -1.725 -5.13475q 0.345 0.22425 0.667 0.67275v 2.967q -0.299 0.391 -0.63825 0.59225q -0.33925 0.20125 -0.76475 0.20125q -0.7015 0 -1.08675 -0.5865q -0.38525 -0.5865 -0.38525 -1.748q 0 -1.173 0.3565 -1.748q 0.3565 -0.575 1.0235 -0.575q 0.483 0 0.828 0.22425Z "/></symbol><symbol id="gA1DF2340B4D3F73DF621872576056520" overflow="visible"><path d="M 0 0m 5.6005 0h -0.9085l -0.0805 0.943q -0.345 -0.5635 -0.7935 -0.82225q -0.4485 -0.25875 -1.0925 -0.25875q -0.7935 0 -1.242 0.483q -0.4485 0.483 -0.4485 1.3685v 4.347h 1.058v -4.232q 0 -0.621 0.2185 -0.87975q 0.2185 -0.25875 0.713 -0.25875q 0.8855 0 1.518 1.0465v 4.324h 1.058v -6.0605Z "/></symbol><symbol id="gE132BC4ADBC52AAF70D880B9BF98CFCE" overflow="visible"><path d="M 0 0m 0.69 7.9235h 1.1385l -0.1725 -3.013h -0.7935l -0.1725 3.013Z "/></symbol><symbol id="gCAB37AC132B06FC5298FE78B4B3C7D98" overflow="visible"><path d="M 0 0m 5.35325 5.3475q 0.70725 -0.851 0.70725 -2.3115q 0 -0.943 -0.322 -1.66175q -0.322 -0.71875 -0.9315 -1.1155q -0.6095 -0.39675 -1.449 -0.39675q -1.2765 0 -1.9895 0.851q -0.713 0.851 -0.713 2.3115q 0 0.943 0.322 1.66175q 0.322 0.71875 0.9315 1.1155q 0.6095 0.39675 1.4605 0.39675q 1.2765 0 1.98375 -0.851Z m -3.55925 -2.323q 0 -2.3115 1.564 -2.3115q 1.564 0 1.564 2.323q 0 2.3115 -1.5525 2.3115q -1.5755 0 -1.5755 -2.323Z "/></symbol><symbol id="gFB4A0A7E8E7DDC191C1E78FEBE04F775" overflow="visible"><path d="M 0 0m 5.23825 5.704q 0.46575 -0.4945 0.46575 -1.357v -4.347h -1.058v 4.1975q 0 0.644 -0.2415 0.9085q -0.2415 0.2645 -0.713 0.2645q -0.483 0 -0.851 -0.276q -0.368 -0.276 -0.69 -0.7935v -4.301h -1.058v 6.0605h 0.9085l 0.092 -0.897q 0.322 0.483 0.79925 0.759q 0.47725 0.276 1.05225 0.276q 0.828 0 1.29375 -0.4945Z "/></symbol><symbol id="g523BDE48A8893DDEAB926A2D1E0A08B6" overflow="visible"><path d="M 0 0m 5.6465 2.668h -3.864q 0.069 -1.0005 0.506 -1.472q 0.437 -0.4715 1.127 -0.4715q 0.437 0 0.805 0.1265q 0.368 0.1265 0.7705 0.4025l 0.46 -0.6325q -0.966 -0.759 -2.116 -0.759q -1.265 0 -1.97225 0.828q -0.70725 0.828 -0.70725 2.277q 0 0.943 0.30475 1.67325q 0.30475 0.73025 0.874 1.14425q 0.56925 0.414 1.33975 0.414q 1.2075 0 1.8515 -0.7935q 0.644 -0.7935 0.644 -2.1965q 0 -0.2645 -0.023 -0.5405Z m -1.0235 0.851q 0 0.897 -0.3565 1.3685q -0.3565 0.4715 -1.0695 0.4715q -1.2995 0 -1.4145 -1.909h 2.8405v 0.069Z m -0.0345 4.807l -2.438 -0.989l -0.322 0.5635l 2.2885 1.311l 0.4715 -0.8855Z "/></symbol><symbol id="g800DE94BD1E5A1246C3143A032257512" overflow="visible"><path d="M 0 0m 4.324 6.1295l -0.1955 -1.035q -0.276 0.069 -0.529 0.069q -0.5635 0 -0.9085 -0.414q -0.345 -0.414 -0.5405 -1.288v -3.4615h -1.058v 6.0605h 0.9085l 0.1035 -1.2305q 0.2415 0.6785 0.6555 1.0235q 0.414 0.345 0.966 0.345q 0.322 0 0.598 -0.069Z "/></symbol><symbol id="g9875088190C63355EC2CF6578F1568BF" overflow="visible"><path d="M 0 0m 2.1505 0h -1.058v 6.0605h 1.058v -6.0605Z m 0 8.763q 0.207 -0.207 0.207 -0.5175q 0 -0.3105 -0.207 -0.51175q -0.207 -0.20125 -0.5405 -0.20125q -0.322 0 -0.529 0.20125q -0.207 0.20125 -0.207 0.51175q 0 0.3105 0.207 0.5175q 0.207 0.207 0.529 0.207q 0.3335 0 0.5405 -0.207Z "/></symbol><symbol id="g6A896A0CAE39C19B348A4BCCB7414759" overflow="visible"><path d="M 0 0m 4.1515 0.276q -0.598 -0.414 -1.357 -0.414q -0.7705 0 -1.20175 0.44275q -0.43125 0.44275 -0.43125 1.28225v 3.657h -1.058v 0.8165h 1.058v 1.3685l 1.058 0.1265v -1.495h 1.4375l -0.115 -0.8165h -1.3225v -3.611q 0 -0.4715 0.16675 -0.68425q 0.16675 -0.21275 0.55775 -0.21275q 0.3795 0 0.805 0.2645l 0.4025 -0.7245Z "/></symbol><symbol id="gA28C8647CF78F15FDA07D303F3128ACD" overflow="visible"><path d="M 0 0m 20.488 8.554l -7.15 -8.008l -1.742 1.482l 3.51 3.848q 1.014 1.118 1.82 1.638h -13.754v 2.08h 13.754q -0.546 0.338 -0.871 0.637q -0.325 0.299 -0.949 1.001l -3.51 3.848l 1.742 1.482l 7.15 -8.008Z "/></symbol><symbol id="g44CBF918C9463109B2374E115EE64607" overflow="visible"><path d="M 0 0m 11.1 7.5075q 0.57 -0.6525 0.57 -1.7625v -5.745h -1.92v 5.445q 0 1.275 -0.87 1.275q -0.465 0 -0.8025 -0.2925q -0.3375 -0.2925 -0.6975 -0.9075v -5.52h -1.92v 5.445q 0 1.275 -0.87 1.275q -0.48 0 -0.8175 -0.2925q -0.3375 -0.2925 -0.6975 -0.9075v -5.52h -1.92v 7.935h 1.665l 0.15 -1.035q 0.9 1.26 2.295 1.26q 0.69 0 1.1925 -0.345q 0.5025 -0.345 0.7425 -0.99q 0.465 0.66 1.035 0.9975q 0.57 0.3375 1.335 0.3375q 0.96 0 1.53 -0.6525Z "/></symbol><symbol id="gA4ECC64C1614396DE75E936B23046F1A" overflow="visible"><path d="M 0 0m 7.4775 7.065q 0.7275 -1.095 0.7275 -3.075q 0 -1.23 -0.3675 -2.1825q -0.3675 -0.9525 -1.08 -1.4925q -0.7125 -0.54 -1.6875 -0.54q -1.26 0 -1.995 0.87v -3.705l -1.92 -0.21v 11.205h 1.68l 0.105 -0.975q 0.45 0.6 1.0575 0.9q 0.6075 0.3 1.2375 0.3q 1.515 0 2.2425 -1.095Z m -1.2825 -3.09q 0 1.47 -0.3825 2.1075q -0.3825 0.6375 -1.1475 0.6375q -0.465 0 -0.8775 -0.2925q -0.4125 -0.2925 -0.7125 -0.7875v -3.57q 0.555 -0.825 1.455 -0.825q 1.665 0 1.665 2.73Z "/></symbol><symbol id="g1F3A61A4A8785A37A6C0ED5606730C7E" overflow="visible"><path d="M 0 0m 7.1625 1.4175q 0.1425 -0.2175 0.4575 -0.3375l -0.405 -1.275q -0.675 0.06 -1.1025 0.3225q -0.4275 0.2625 -0.6525 0.8325q -0.405 -0.6 -1.0125 -0.8925q -0.6075 -0.2925 -1.3575 -0.2925q -1.185 0 -1.875 0.675q -0.69 0.675 -0.69 1.77q 0 1.29 0.9375 1.9725q 0.9375 0.6825 2.6775 0.6825h 0.99v 0.45q 0 0.765 -0.3525 1.0725q -0.3525 0.3075 -1.1325 0.3075q -0.87 0 -2.1 -0.42l -0.45 1.305q 1.485 0.57 2.88 0.57q 3.045 0 3.045 -2.73v -3.33q 0 -0.465 0.1425 -0.6825Z m -2.0325 0.7275v 1.605h -0.795q -1.86 0 -1.86 -1.38q 0 -0.57 0.285 -0.885q 0.285 -0.315 0.84 -0.315q 0.975 0 1.53 0.975Z "/></symbol><symbol id="gBC643BCE48F99E9C12ED6DDBD6E9F54E" overflow="visible"><path d="M 0 0m 7.755 7.935v -11.205l -1.92 0.21v 3.945q -0.375 -0.525 -0.93 -0.8175q -0.555 -0.2925 -1.245 -0.2925q -1.455 0 -2.235 1.125q -0.78 1.125 -0.78 3.06q 0 1.23 0.39 2.1825q 0.39 0.9525 1.1175 1.485q 0.7275 0.5325 1.7175 0.5325q 1.215 0 2.1 -0.99l 0.12 0.765h 1.665Z m -2.655 -6.4575q 0.39 0.2475 0.735 0.7725v 3.63q -0.33 0.42 -0.69 0.63q -0.36 0.21 -0.81 0.21q -0.78 0 -1.2225 -0.6825q -0.4425 -0.6825 -0.4425 -2.0625q 0 -1.47 0.39 -2.1075q 0.39 -0.6375 1.14 -0.6375q 0.51 0 0.9 0.2475Z "/></symbol><symbol id="g8622C79056DF686E291BF3045C8E5824" overflow="visible"><path d="M 0 0m 8.055 7.515q -0.765 -0.27 -2.295 -0.27q 0.735 -0.33 1.0875 -0.8175q 0.3525 -0.4875 0.3525 -1.2225q 0 -0.78 -0.3825 -1.38q -0.3825 -0.6 -1.11 -0.945q -0.7275 -0.345 -1.7025 -0.345q -0.54 0 -0.945 0.12q -0.33 -0.225 -0.33 -0.585q 0 -0.555 0.96 -0.555h 1.215q 0.87 0 1.5225 -0.285q 0.6525 -0.285 1.0125 -0.8025q 0.36 -0.5175 0.36 -1.1625q 0 -1.2 -1.02 -1.8675q -1.02 -0.6675 -2.94 -0.6675q -1.38 0 -2.1675 0.285q -0.7875 0.285 -1.1175 0.825q -0.33 0.54 -0.33 1.38h 1.725q 0 -0.42 0.1575 -0.66q 0.1575 -0.24 0.57 -0.36q 0.4125 -0.12 1.1925 -0.12q 1.095 0 1.545 0.27q 0.45 0.27 0.45 0.78q 0 0.45 -0.345 0.6975q -0.345 0.2475 -1.005 0.2475h -1.2q -1.125 0 -1.695 0.435q -0.57 0.435 -0.57 1.095q 0 0.42 0.2475 0.81q 0.2475 0.39 0.6825 0.66q -0.72 0.375 -1.0575 0.9225q -0.3375 0.5475 -0.3375 1.3125q 0 0.855 0.42 1.5q 0.42 0.645 1.1625 0.9975q 0.7425 0.3525 1.7025 0.3525q 1.26 -0.03 2.0325 0.1875q 0.7725 0.2175 1.6725 0.6975l 0.48 -1.53Z m -5.1675 -1.0725q -0.3675 -0.4125 -0.3675 -1.1025q 0 -0.72 0.375 -1.14q 0.375 -0.42 1.035 -0.42q 0.69 0 1.05 0.4125q 0.36 0.4125 0.36 1.1625q 0 1.5 -1.44 1.5q -0.645 0 -1.0125 -0.4125Z "/></symbol><symbol id="gEA09FB0037DEC5B1A835A5519352FD6A" overflow="visible"><path d="M 0 0m 5.5775 5.3705q 0.5405 -0.828 0.5405 -2.3345q 0 -1.426 -0.621 -2.3q -0.621 -0.874 -1.7595 -0.874q -1.012 0 -1.587 0.69v -2.875l -1.058 -0.1265v 8.51h 0.9085l 0.0805 -0.8165q 0.3335 0.46 0.805 0.70725q 0.4715 0.24725 0.989 0.24725q 1.1615 0 1.702 -0.828Z m -0.598 -2.3345q 0 2.323 -1.3685 2.323q -0.4485 0 -0.8165 -0.2645q -0.368 -0.2645 -0.644 -0.6785v -2.9555q 0.23 -0.3565 0.575 -0.54625q 0.345 -0.18975 0.759 -0.18975q 1.495 0 1.495 2.3115Z "/></symbol><symbol id="g9C837F7DEAD32D52D0C8962208E2875D" overflow="visible"><path d="M 0 0m 5.3015 0.86825q 0.1265 -0.17825 0.3795 -0.27025l -0.2415 -0.736q -0.4715 0.0575 -0.759 0.2645q -0.2875 0.207 -0.4255 0.644q -0.6095 -0.9085 -1.8055 -0.9085q -0.897 0 -1.4145 0.506q -0.5175 0.506 -0.5175 1.3225q 0 0.966 0.69575 1.4835q 0.69575 0.5175 1.97225 0.5175h 0.9315v 0.4485q 0 0.644 -0.3105 0.92q -0.3105 0.276 -0.9545 0.276q -0.667 0 -1.633 -0.322l -0.2645 0.7705q 1.127 0.414 2.093 0.414q 1.0695 0 1.5985 -0.52325q 0.529 -0.52325 0.529 -1.48925v -2.7715q 0 -0.368 0.1265 -0.54625Z m -1.1845 0.73025v 1.3915h -0.7935q -1.679 0 -1.679 -1.242q 0 -0.5405 0.2645 -0.8165q 0.2645 -0.276 0.782 -0.276q 0.9085 0 1.426 0.943Z "/></symbol><symbol id="gDED67C71F297A5BE5899AD74012C3D09" overflow="visible"><path d="M 0 0m 2.1505 0h -1.058v 8.4985l 1.058 0.1265v -8.625Z m 1.2535 3.381l 2.484 -3.381h -1.265l -2.4035 3.312l 2.231 2.7485h 1.1845l -2.231 -2.6795Z "/></symbol><symbol id="g58A4C21A830C18DF9CAF4C65EB6C0297" overflow="visible"><path d="M 0 0m 5.98 5.7845q -0.345 -0.115 -0.759 -0.1495q -0.414 -0.0345 -1.012 -0.0345q 1.0695 -0.483 1.0695 -1.5295q 0 -0.9085 -0.621 -1.4835q -0.621 -0.575 -1.6905 -0.575q -0.414 0 -0.7705 0.115q -0.138 -0.092 -0.2185 -0.24725q -0.0805 -0.15525 -0.0805 -0.31625q 0 -0.4945 0.7935 -0.4945h 0.966q 0.6095 0 1.081 -0.2185q 0.4715 -0.2185 0.73025 -0.598q 0.25875 -0.3795 0.25875 -0.8625q 0 -0.8855 -0.7245 -1.36275q -0.7245 -0.47725 -2.116 -0.47725q -0.9775 0 -1.54675 0.20125q -0.56925 0.20125 -0.81075 0.60375q -0.2415 0.4025 -0.2415 1.035h 0.9545q 0 -0.368 0.138 -0.58075q 0.138 -0.21275 0.4945 -0.322q 0.3565 -0.10925 1.012 -0.10925q 0.9545 0 1.36275 0.23575q 0.40825 0.23575 0.40825 0.70725q 0 0.4255 -0.322 0.644q -0.322 0.2185 -0.897 0.2185h -0.9545q -0.7705 0 -1.16725 0.32775q -0.39675 0.32775 -0.39675 0.82225q 0 0.299 0.1725 0.575q 0.1725 0.276 0.4945 0.4945q -0.529 0.276 -0.77625 0.68425q -0.24725 0.40825 -0.24725 0.99475q 0 0.6095 0.30475 1.0925q 0.30475 0.483 0.8395 0.75325q 0.53475 0.27025 1.19025 0.27025q 0.713 -0.0115 1.196 0.05175q 0.483 0.06325 0.79925 0.1725q 0.31625 0.10925 0.77625 0.31625l 0.3105 -0.9545Z m -4.00775 -0.71875q -0.32775 -0.37375 -0.32775 -0.98325q 0 -0.621 0.3335 -0.99475q 0.3335 -0.37375 0.943 -0.37375q 0.621 0 0.94875 0.36225q 0.32775 0.36225 0.32775 1.01775q 0 1.3455 -1.2995 1.3455q -0.598 0 -0.92575 -0.37375Z "/></symbol><symbol id="g477846B4DA5AA46721B3645607D639B9" overflow="visible"><path d="M 0 0m 3.8525 6.026q 0.4945 -0.1725 0.943 -0.5175l -0.4485 -0.667q -0.414 0.2645 -0.78775 0.391q -0.37375 0.1265 -0.78775 0.1265q -0.5175 0 -0.8165 -0.21275q -0.299 -0.21275 -0.299 -0.58075q 0 -0.368 0.28175 -0.575q 0.28175 -0.207 1.01775 -0.4025q 1.012 -0.253 1.51225 -0.69q 0.50025 -0.437 0.50025 -1.196q 0 -0.897 -0.69575 -1.3685q -0.69575 -0.4715 -1.69625 -0.4715q -1.38 0 -2.2885 0.7935l 0.5635 0.644q 0.7705 -0.5865 1.702 -0.5865q 0.598 0 0.94875 0.24725q 0.35075 0.24725 0.35075 0.67275q 0 0.3105 -0.1265 0.50025q -0.1265 0.18975 -0.437 0.3335q -0.3105 0.14375 -0.9085 0.30475q -0.966 0.253 -1.39725 0.6785q -0.43125 0.4255 -0.43125 1.081q 0 0.4715 0.28175 0.85675q 0.28175 0.38525 0.782 0.598q 0.50025 0.21275 1.12125 0.21275q 0.621 0 1.1155 -0.1725Z "/></symbol><symbol id="g9DD3254E1BEF65F2BD5B27EA79188ED3" overflow="visible"><path d="M 0 0m 1.37425 0.21275q -0.33925 0.35075 -0.33925 0.98325v 7.3025l 1.058 0.1265v -7.406q 0 -0.253 0.08625 -0.368q 0.08625 -0.115 0.29325 -0.115q 0.2185 0 0.391 0.069l 0.276 -0.736q -0.3795 -0.207 -0.8395 -0.207q -0.5865 0 -0.92575 0.35075Z "/></symbol><symbol id="g43D339D1BFDFDBBADDD34128D2D4FC19" overflow="visible"><path d="M 0 0m 7.62 3.375h -4.98q 0.105 -1.155 0.6075 -1.65q 0.5025 -0.495 1.3425 -0.495q 0.525 0 0.99 0.1725q 0.465 0.1725 0.99 0.5325l 0.795 -1.095q -1.32 -1.065 -2.94 -1.065q -1.815 0 -2.7975 1.11q -0.9825 1.11 -0.9825 3.03q 0 1.215 0.42 2.1825q 0.42 0.9675 1.215 1.515q 0.795 0.5475 1.89 0.5475q 1.665 0 2.58 -1.0575q 0.915 -1.0575 0.915 -2.9475q 0 -0.15 -0.045 -0.78Z m -1.86 1.335q 0 2.085 -1.545 2.085q -0.705 0 -1.1025 -0.5175q -0.3975 -0.5175 -0.4725 -1.6575h 3.12v 0.09Z m 0.375 6.09l -3.39 -1.35l -0.54 0.975l 3.15 1.875l 0.78 -1.5Z "/></symbol><symbol id="gFBBFFB1D6E773F4D1062D719DD3932BE" overflow="visible"><path d="M 0 0m 5.7845 8.4985v -8.4985h -0.9315l -0.1035 0.8395q -0.299 -0.46 -0.7475 -0.71875q -0.4485 -0.25875 -1.0005 -0.25875q -1.081 0 -1.68475 0.851q -0.60375 0.851 -0.60375 2.2885q 0 0.9315 0.2875 1.656q 0.2875 0.7245 0.828 1.13275q 0.5405 0.40825 1.265 0.40825q 0.9315 0 1.633 -0.7475v 3.174l 1.058 -0.1265Z m -1.725 -7.57275q 0.345 0.22425 0.667 0.67275v 2.967q -0.299 0.391 -0.63825 0.59225q -0.33925 0.20125 -0.76475 0.20125q -0.7015 0 -1.08675 -0.5865q -0.38525 -0.5865 -0.38525 -1.748q 0 -1.173 0.3565 -1.748q 0.3565 -0.575 1.0235 -0.575q 0.483 0 0.828 0.22425Z "/></symbol><symbol id="g4B0F22FCEC745417016D6FA03EC5429E" overflow="visible"><path d="M 0 0m 8.372 5.69825q 0.4485 -0.50025 0.4485 -1.35125v -4.347h -1.058v 4.1975q 0 1.173 -0.851 1.173q -0.4485 0 -0.759 -0.25875q -0.3105 -0.25875 -0.667 -0.81075v -4.301h -1.058v 4.1975q 0 1.173 -0.851 1.173q -0.46 0 -0.7705 -0.2645q -0.3105 -0.2645 -0.6555 -0.805v -4.301h -1.058v 6.0605h 0.9085l 0.092 -0.8855q 0.6785 1.0235 1.748 1.0235q 0.5635 0 0.96025 -0.2875q 0.39675 -0.2875 0.56925 -0.805q 0.3565 0.529 0.78775 0.81075q 0.43125 0.28175 1.01775 0.28175q 0.7475 0 1.196 -0.50025Z "/></symbol><symbol id="gE073862D78100D715310FF8054A23D0A" overflow="visible"><path d="M 0 0m 9.12 0h -2.4l -1.2 6.225l -1.23 -6.225h -2.355l -1.755 7.935h 1.92l 1.11 -6.525l 1.38 6.525h 1.965l 1.26 -6.525l 1.185 6.525h 1.845l -1.725 -7.935Z "/></symbol><symbol id="g357F14B871B66E1041C66EBF5B6B73A2" overflow="visible"><path d="M 0 0m 5.3015 0.86825q 0.1265 -0.17825 0.3795 -0.27025l -0.2415 -0.736q -0.4715 0.0575 -0.759 0.2645q -0.2875 0.207 -0.4255 0.644q -0.6095 -0.9085 -1.8055 -0.9085q -0.897 0 -1.4145 0.506q -0.5175 0.506 -0.5175 1.3225q 0 0.966 0.69575 1.4835q 0.69575 0.5175 1.97225 0.5175h 0.9315v 0.4485q 0 0.644 -0.3105 0.92q -0.3105 0.276 -0.9545 0.276q -0.667 0 -1.633 -0.322l -0.2645 0.7705q 1.127 0.414 2.093 0.414q 1.0695 0 1.5985 -0.52325q 0.529 -0.52325 0.529 -1.48925v -2.7715q 0 -0.368 0.1265 -0.54625Z m -1.1845 0.73025v 1.3915h -0.7935q -1.679 0 -1.679 -1.242q 0 -0.5405 0.2645 -0.8165q 0.2645 -0.276 0.782 -0.276q 0.9085 0 1.426 0.943Z m 0.3795 6.302l -0.322 -0.5635l -2.438 0.989l 0.4715 0.8855l 2.2885 -1.311Z "/></symbol></defs></svg>